<mxfile host="app.diagrams.net" modified="2022-08-05T21:12:29.993Z" agent="5.0 (Macintosh; Intel Mac OS X 10_15_7) AppleWebKit/537.36 (KHTML, like Gecko) Chrome/103.0.0.0 Safari/537.36" etag="m9e24ToKbuuXrHn79kro" version="20.2.3" type="github">
  <diagram id="FEH0hwJPOnMGcm_XX7g1" name="Page-1">
    <mxGraphModel dx="1796" dy="1652" grid="1" gridSize="10" guides="1" tooltips="1" connect="1" arrows="1" fold="1" page="1" pageScale="1" pageWidth="850" pageHeight="1100" math="0" shadow="0">
      <root>
        <mxCell id="0" />
        <mxCell id="1" parent="0" />
        <mxCell id="4loPCg8nlwmWD9Sx91Vf-6" style="edgeStyle=orthogonalEdgeStyle;rounded=0;orthogonalLoop=1;jettySize=auto;html=1;" edge="1" parent="1" source="4loPCg8nlwmWD9Sx91Vf-1" target="4loPCg8nlwmWD9Sx91Vf-5">
          <mxGeometry relative="1" as="geometry">
            <Array as="points">
              <mxPoint x="430" y="117" />
              <mxPoint x="430" y="117" />
            </Array>
          </mxGeometry>
        </mxCell>
        <mxCell id="4loPCg8nlwmWD9Sx91Vf-7" value="Query by userID / email" style="edgeLabel;html=1;align=center;verticalAlign=middle;resizable=0;points=[];" vertex="1" connectable="0" parent="4loPCg8nlwmWD9Sx91Vf-6">
          <mxGeometry x="-0.1675" y="-2" relative="1" as="geometry">
            <mxPoint x="1" y="-6" as="offset" />
          </mxGeometry>
        </mxCell>
        <mxCell id="4loPCg8nlwmWD9Sx91Vf-3" style="edgeStyle=orthogonalEdgeStyle;rounded=0;orthogonalLoop=1;jettySize=auto;html=1;entryX=0;entryY=0.5;entryDx=0;entryDy=0;entryPerimeter=0;" edge="1" parent="1" source="4loPCg8nlwmWD9Sx91Vf-2" target="4loPCg8nlwmWD9Sx91Vf-1">
          <mxGeometry relative="1" as="geometry">
            <Array as="points">
              <mxPoint x="60" y="117" />
            </Array>
          </mxGeometry>
        </mxCell>
        <mxCell id="4loPCg8nlwmWD9Sx91Vf-4" value="&lt;b&gt;Auth:&lt;br&gt;&lt;/b&gt;- payload: {email, password}" style="edgeLabel;html=1;align=center;verticalAlign=middle;resizable=0;points=[];" vertex="1" connectable="0" parent="4loPCg8nlwmWD9Sx91Vf-3">
          <mxGeometry x="-0.2339" y="-4" relative="1" as="geometry">
            <mxPoint as="offset" />
          </mxGeometry>
        </mxCell>
        <mxCell id="4loPCg8nlwmWD9Sx91Vf-2" value="User" style="sketch=0;outlineConnect=0;fontColor=#232F3E;gradientColor=none;strokeColor=#232F3E;fillColor=#ffffff;dashed=0;verticalLabelPosition=bottom;verticalAlign=top;align=center;html=1;fontSize=12;fontStyle=0;aspect=fixed;shape=mxgraph.aws4.resourceIcon;resIcon=mxgraph.aws4.user;" vertex="1" parent="1">
          <mxGeometry x="40" y="300" width="50" height="50" as="geometry" />
        </mxCell>
        <mxCell id="4loPCg8nlwmWD9Sx91Vf-8" style="edgeStyle=orthogonalEdgeStyle;rounded=0;orthogonalLoop=1;jettySize=auto;html=1;" edge="1" parent="1" source="4loPCg8nlwmWD9Sx91Vf-5" target="4loPCg8nlwmWD9Sx91Vf-2">
          <mxGeometry relative="1" as="geometry">
            <mxPoint x="90" y="290" as="targetPoint" />
            <Array as="points">
              <mxPoint x="70" y="140" />
            </Array>
          </mxGeometry>
        </mxCell>
        <mxCell id="4loPCg8nlwmWD9Sx91Vf-9" value="Return:&lt;br&gt;- User instance&amp;nbsp;&lt;br&gt;&lt;div style=&quot;text-align: left;&quot;&gt;- Auth token&lt;/div&gt;" style="edgeLabel;html=1;align=center;verticalAlign=middle;resizable=0;points=[];" vertex="1" connectable="0" parent="4loPCg8nlwmWD9Sx91Vf-8">
          <mxGeometry x="-0.0239" y="1" relative="1" as="geometry">
            <mxPoint x="167" y="16" as="offset" />
          </mxGeometry>
        </mxCell>
        <mxCell id="4loPCg8nlwmWD9Sx91Vf-17" style="edgeStyle=orthogonalEdgeStyle;rounded=0;orthogonalLoop=1;jettySize=auto;html=1;endArrow=none;endFill=0;strokeColor=#8A8A8A;" edge="1" parent="1" source="4loPCg8nlwmWD9Sx91Vf-5" target="4loPCg8nlwmWD9Sx91Vf-13">
          <mxGeometry relative="1" as="geometry" />
        </mxCell>
        <mxCell id="4loPCg8nlwmWD9Sx91Vf-5" value="Users" style="outlineConnect=0;dashed=0;verticalLabelPosition=bottom;verticalAlign=top;align=center;html=1;shape=mxgraph.aws3.dynamo_db;fillColor=#2E73B8;gradientColor=none;" vertex="1" parent="1">
          <mxGeometry x="590" y="76" width="72" height="81" as="geometry" />
        </mxCell>
        <mxCell id="4loPCg8nlwmWD9Sx91Vf-13" value="&lt;span data-metadata=&quot;&lt;!--(figmeta)eyJmaWxlS2V5IjoiSHFaNmRFaE1LektLNTN5cWpIdkJweCIsInBhc3RlSUQiOjkxNTk1NDE1OSwiZGF0YVR5cGUiOiJzY2VuZSJ9Cg==(/figmeta)--&gt;&quot;&gt;&lt;/span&gt;&lt;span data-buffer=&quot;&lt;!--(figma)ZmlnLWtpd2kPAAAAlDAAAO19eZgjSXVnREqqo6uPuS+G+75nek5uUqlUKbskZU5mStU9HiNUpawq0SpJKKXqqTHGXLYxx3Ca+14Mw4C5jTHGLMYYYxZjjDFmMWYxxizrZVkvy7Ks18vu772IPFTd8O3+sX/YX8/3dcWLF5EvXrz34sWLF5maz8pGFMfd7SjcH0dCHDvhOs1OEJp+KPBf063YHatmNlftAFXZCmw/Vze4t92sAC4EzmrTrAMqBuGpug2gxEAnsInWAvdlyp1gzfE6vl13TXpysemGTvVUJ6i5rXql0/JWfbNCzy9psFNxm1RfTuq+XfXtoAbUocCym3YHaK/WuaVl+6eAXMkjfdurE/JwxalWUR6x6o7dDDtlH6NbZkC8HTVv78eYzknAgjpLc3MTYgHKt81Kx20yCcGVdd8JiRvZHPUib6cbR+hmoSm0aTbo1HDbDMr1/rDXH277swH1abrNW23fRYNwK9xOFJTc741GGyhRca1WA/wBlJbZbJsBIGPVd1segELVNxvUr1h23bptNjuuZ/tm6LhNIEtt2wpdH9ACyRnlYt1hskt2ve54AYHLPjpBgayhQ7692qqbfsdz66dWmcgKhmpW7AoEl/U7HNoniaUjQd2xCHE0ONUou6TtY04TgzUZe0EQOtYaierCoGZ6dmfdCWsd/exFlttsgiYzeLFFllWuu9YaapesO5VVtpJLQatBM72sYVccE8DlNWe1Vsc/ar4iAAE12Ss12IGw/bpJg161bgY1pxNiZNTu0TZ9xywz/1eHGrgnAx0L8kDtXsFOdxyt96c7YXT7VGnicHBLy/RttAp00kKT4KXhsp0bIaiSWGCoqBbSasVdJ76K55JfyTN9s16HxcMoGx1fT2dhHl23q4RdtJurnYoJTk0efInqsO0WVZapUnWY6iGG3XrFJpGulAfRsNeASUG8nhkEnbAGXlZpmWAh+w1enLJi+ms2MWo0WvXQUYujQHYCMyi3fGoqWm7dTWsllj4/sxDA0Bliy8ITFReaQ31JPZJUlzOtHArcathhGqit1Ey/ktZ4Udq+rczniH3SqrcCKBWVozWe77HADFuphV/AowC4sN5qOE03cEIa4iKv2x9q/S0Gbt0hRQnItOJgKWE0YhUYmaKoZHlgaQEkFHRFSwG4QopDJ632otMweWYlLO8TDoAFZxduM9jsDiIldPg93w4tlnfVoelJKIoHCZXCCvbWVrSpGS06WA4+vJ4Jy0GjqPiul1Vl1cXihAKbFayTFvFllE1rbR5VIMO12ActuDArR7lg0fLgF1DKurvOAFgIFQ8BDKHesUyPPEsxq8GSfIv9VomIVqLN0aQ77Y+GeCbxThgZaoU4AUtM11mzMyMzmrPdjWjSGvanMZ7xTZqG8JyTdj0AIMER/DLJxbBGw3g6ySkNygReUDuzKxsmOWMDY2iRFgLL5AkUq6BY6agnSrrCvReC6WR0OjIH/e0hHkiJCbgoh3cU6bZCDRqqs9Udw8iS+WEqrG2ZOgHD9H13nU2IJlFQVfuWllOHw8fqBbKozYTWZV1LMPEKKWoh78cWM0/VuRb1pVz9OOrLufp1qB/K1a9HfSVXvwH1w7n6jagfsRzfyo9+VM32xKhPkmlgB/OBFWW7bdMMZDJxozwaDaLu0B1HifKLraZafBAjHiO3C1gGrXLomwwbJ3lNsi2y8GujSf+O0XDaHeBx7dVyuoWdshSMEy1sGFWHOcyebkeTaR/LinCuh6bco2U3DN0GIKMxmsWRNZvEownkU7GrJtwZGoTluwFWkeMDlvYpm5YVTA81A4ELD+WZmArcmwXzRb3osUsrobCcOqCFBjlJemQRKkbMA2gp1R9Xl9tYyKNJoz+ZEAPpCmGto5QMwKnA2cFNh2TCRqUb7yhfYVjYWoASmYFL9idqPRS95ipQ4oRnUymDNhWGV6EIpmDfPh5NpgfXUAH7K7w0oiu9UESCwO7K48sEUbNpHsAY9e7+aDZdnfR7ikhRLaucxDMGDbXKCtkzXnc6jSZDNKGX4/EKgdtl9ytZn7PpyI/i/h0gnYqI2WHJpHzIFDLosXAyG25q8zMqTkB7NtEUCDUdlowMpvuDKIj03KE6P3C17wttkyxEWrAuZSuIFrF/Ni3aKwqh3fBc3+RIsZiQgTCnUSrJs7YQgDLZAOA4upunlRrTOdXgfG+FdJkDib0PgRDDqjfbNYY7S7pKpEYZRkYuBnCBH7BGMzA00c8t/LTnIHatnILZCim0LOZIlZjUiVk87W/to+mnUvFMy+7AFagwV3EQKKWxfwUSYW3g3Gp3QhdOheUxh4CNQadOw0N8iBq1oI+avDeK+6RLRMJAaT6FWYaUWyqShvSHWE7ooxSAEwFPQHkcqLVDBxHUZctnoZaxEaIsWHWXQ6QizhidXLxXankIoOwOB5Edv9UMHQ6bFxySajc31GFEkFiLTE6YVQzXob7YJ1CXDRcnng6LzVCwaijgqRqFOICLqgG7NnUrqRrHhgvo5UFMtCySKS1VfHMV5TLa1uxTyWOHUG27KrZeCSfdoRKZ4vEq7F8IJcMOHC52Mh0LCSwMiLBtA5RVHItQGojPEVdXfTeNJgs5VOJ4izmccrGlHCb1sQteK6gpnCa2mGESWksZSpFazhAppUN0JFI4TWklwySUDmcoRelIhkgpHVWMQg3olBA7NodM6F0wh1UkL5zDpVQv4pE0VhO9OI9LaF6SRyqSl+ZRKcXL4C0cq0NtqF2OMAvnXrMJJ8ImfwUCaReBV4a50u7GWCFK40dxVLZaZcdCgyDSSUUi6M1VDVrpKmbFE7Qq0qYi9ZvDlNSzc7gF5STT+mLg+crDLq3CTWAHSxHLumuKOKQgNnEsP2XfK/PIcJ0W++EDyBoOEUAfCTYno8Gg0p+oxQ+m9Sr5Gf4UEmZ/p56F55jSeo56cDXTCO32SQ9bi/JZFihQjMI1udqCU5dGjIM9BgO8KORghECDQcMaDbCTy+JELAu5jT/GBv4UuvhTVJs9Hr4dNbmPP4YPFHpniDP4U9jBnyJTCqajMR7YJFjcKuRYe0F0MBrd6aR/u5ALu9dcg7rcveZaFMbuNcdRFHavJWRx91pClnavJeSC151gf3KGvQjPGduzfk+czBFdETr6RuNedzCL8IyccSR+lTCqkFKzuxsJWdjq7vYH++gvY9r6ABggMo03J/3xFLUC9W13J/0uHpntRpP+ZrW/PZtAtNjs9CFSwOygTwASp0/O8gDmYeYfDcbdTRj13LMe4jEX+tTbtcQ5V5+7zkGgSsqlCeYpwKcjV8EwwhOYM+s3/7TVHccw5uwRrD8+iUkUnaRieDZORcR6AYhOWqOIF5khAktAYbKrABdy9L1E7nm2EBHjLwJjBCMAmJ+AhQzlpL0c2DQvNYkYmx18NepOWcB/Jz0cxNAkrOMed9FcGJYXEL5A3KBkBlGWdD5pIXCaFBkuun6liXLJrPrUvlxpsjM61Gw1iKUVxK+UUzmMHY+mdKSiyqMU2KI8hrMdlReYJsfSF1qqvAiHCSovDlT9Er/NmYFLaWGivCxY52zc5VawTuUVUA7hr7QsTuZcFagg5R41h/NtV+v44J6u3yT+7kVCQXlv7G+kyvtUQj4y3rdaN2ke92us+rRB3z+AraF8AIJzGv+BVcSSKB9UU+WDa2rch4Sq/tBbVPkwT5UPpwMHykfUq2WqP9L1uHyUH3L5aE89f4231iQ5XVuH+0B5HCXxeZ0f1ql+PUqq32CW/TbKG81ym+o3oSS+b24rOo9pgyGUjy3X10k/j0NJ/R6Pkvo9wVyr0TyeaJ3gg9STrCovhCdbHtdNq+VTvzK2eqpbcG5UVqqKvl3FeR9lFeVxlKsor0NZw7A0noOS6J+oqflgtFXip15zT5DdICDkWK7pIJBA6Z7wbroZpXfCu5no3HLCe8w1KP0T3jXXowzqJxr0XIi8HfVvYVcjvbQpzkK5jpL4ONlYaxD+VLPOgdWtzdZaiPLnsAEQX7ehDFD+fBsCR/kULwgJ30FJ+Kf6az7Vu75Xo3LDb5VJ75sBAkyUvVDxEYVNDvW3oCbS33YbySKUO23V3m+reT+tvcb2crrthz7KAcrjKHeDAJ5XiCFKqo9QXodyjPJ6lE9HeQPKCcobUcYob0I5RUlymqF8DMq9IIDPFuIMSqJ3O0qit4+S6N2Bkuj9Akqi9wyURO8XURK9Z6Iker+Ekug9SwbBcSL4bGm1mcPnEEAkn0sA0XweAUT0lwkgqr9CAJH9VQKI7vMJIMK/RgBRfgEAZvWFBBDlFxFAlF9MAFG+kwCi/BICiPJLCSDKLyOAKL+cAKL8CgKI8isBMM+/TgBRfhUBRPnVBBDl1xBAlF9LAFF+HQFE+fUEEOU3EECU30gAUX4TgOuI8psJIMpvIYAov5UAovw2AojyvyKAKL+dAKL8GwQQ5XcQQJTfSQBRvgvA9UT5XQQQ5bsJIMrvJoAov4cAovybBBDl9xJAlN9HAFF+PwFE+QMEEOUPAriBKH+IAKL8YQKI8m8RQJQ/QgBR/m0CiPJHCSDKv0MAUf4YAUT5dwkgyh8HcCNR/j0CiPInCCDK/5oAovxJAojy7xNAlD9FAFH+AwKI8qcJIMp/SABR/gyAm4jyHxFAlD9LAFH+YwKI8ucIIMr/hgCi/HkCiPKfEECUv0AAUf5TAojyFwHcTJT/jACi/CUCiPKfE0CUv0wAUf4LAojyVwggyn9JAFH+KgFE+d8SQJS/BoBd1F8RQJS/TgBR/msCiPI3CCDK/44AovxNAojy3xBAlL9FAFH+WwKI8rflwTQLQqsptmtxXMgkxDIopmx0x2MKcqSxNRntUlg2HeGvUR6MNoSUG/vTKBYFqfI7wijgymiH6kOKyBB/9brTLvddFIV2vxeNhGEkfeLrWpMBdar2Bzi5WhRNmr2n4Ugv5NKUmEKcF+90e6MzMUBjp7+9g5zBDuI+RJK9aNrtDwAVI8wlpiADEeUecgoREjeAF6bRLmf6VNPiXn8DZ89Ngpc4p66G1VeEwjj0/3fITURMky7mtiyWNyZEc4iRUTvEzAjjElbABUJukiAQVhsjijCnFIAX9vpxfwPRlhRFFPoq5KgoxYjEY/FUuQDaw3hrNNkVkHWftfFMscRAuIPoeUicP1Msd4fA4UjhUAsQFygE4j2Eo9DZorgQ9Xzu/yJxaDLCAQRdwMlKTA0ADm+x+CxiVmvtOVIcGdNkqtwENy6ORrujp/Ut0PGQnoUYF+WxPbaDZ0lxEVKp2/0hDik04nq/N93B+BfPYWsRiQroSyjkbEADFZiUMEqno32xI+QWsPX+MOkHnRGm0t+OwFABZwLUVKA6FUWqrKuOJaTXUeOYl6dmFLq4KA272xhLEtgkccA6k/XASVw1+NHNnS4F79EkRg+Z1nggp0KzNGKC3b1oglxiFHahNfF9KQsDTjByAuo26BK3GwNwH2MbkqXtwf54J8b+Ixd66Q1FjN1HLqrH2hgQKHC4tAXmU2k8X8rlre5gsIGMVBUNsdiRh3ZgThMQP10e3Y4B7pRyBTVAdxny8DTNQuJsOdFnr5I4ovFRL5Xn0VqOjjCKG8je9WLxFBzB1OrV57XCTtIP4WgJuTo9NWEsYq2oE8VtQp5hLUNN1HYKQIGAdLQi1cx4E+dB1Ba3+pN4aiXixbxLsP18fWGVZCaMhc3R7m4XjGlnk50ebxNKFeAKPmgL0mHhY6iziXd7e3q5LlRSBcBjTXAexpThslJKhjo2s/iNwh5XmtH0zGhyOmFhiNXYHWCwHo+YMHK2TZCjRboZ05AkzFiclDLY390YDTT5mCsYF/5XwQmRmAgYOAzT0g9oaVYxG7gPCDYhm/hww2BFyTFwCFdwcMOyXI2G5LAwTzWWHOUpywoOqnvkLXZnU+KXnYTqacz3REXbpsGLCp3BsJoRjRpA0JAEc+9HWxGO/JC0sbzVH0RrWMtYRzE34qmTWHWKXK2LvQInd6LigW89lxihlCwmu09p0IefnezThMNRMNugE/8GuhFC3CHJOMajIWxKDbQ4G24NKL1Pads8xaV+3Eqaop6QYllxbSXPN7oxTEXNv7CZYBVVOZ5tDPrxDojRuMRtOAqj7m49444GMQ4OUnCwC5PduZg0CTSY0qyNwkjXiZS7FZwBp1CF7kwaxFYxx8K8Ss5Nt338/4oyJ4+CnEKSRxRpddkrjCXetC4hTrAP8Ka1tRVHU1h7YdLt9We0wxWz3auEIt29FuLxJOr20GMx3hmdgayx75YjSLBHponuSyFta7yQneEWBQ88nidkb6asFg8bHvanETVUor3+ZnLNlKTb6DzGV2HSwgmZcwYG45CBo0wN6gX1oJ9sc1ga+mHLWu9wDCYPDAJPSBWEx7BbvbwxG0zd6UEf/a0+XAoMF08pmh/E1u1ChvDknvZNIREQS+mdhUDSNcnQSoLTFoNqSZ62gDQh5pH0LOpq2rmkEUl/3Pg1W3wWXdQMlLFPbE/IkTvZnQFGSWdNVw9IeqrbA8r/6otleRYBNYf0SZy1nUoneZPh7O4mDA0Ol6zMMDZSNFP5GESZoazEoJpdRFgsQ+4lSk2zjVQPZ7MEUtD6VQwZrHN+yaCS3sXiDrhZ51w038sUbYRtk2mAaA2LNIbziWdbW0hWYvH2KdjgAa4RSGxiKai4+HZRiPe2acVzPAAlooq4mOzzU7Bn1NzZlHYtCg/QDmcDmWIPdofIRUqY9t52dTTZxOqjW2p4kNMx0EuzODI34tFgNo3KNF9CLmsG26t6BGE41U7TtnXO16yvm6cCALLO8QDdU2IWU2L7esFRizDgO9PlVhjOdgMsVAgvFtiU9eJE1BorbECmi+1uewZ3NNG1xU0t+6UxeSlcgt4ollfhgaE0jpIwiExJpQGAB2eCDmewfCFefjFsScAxzG3Mag+ES8FmHBAYEvOUzlQGRLf6KJD79N01whj6FauCXa2q6/kiMkWuT1BJ38cuwHXATTO93N6ixlKuMdmf9IZi5J6ASjBJUjG4jwmjH4mhi2Stom5kW5XO0MNXwTghKtBjOyPdYAq4Vuys12ysn5pTr3TcKu6tqRnJVlz5qLfcpDnZTMdECAaRmcNtyAwnELjIXNXo4wZx4ifetKC8ch2RFp6dTfrgR/b68XjQ3WcbXcGxS1XZJMGtN5ghotajjbkCueExFdvigdNqWh63+dGgizBwRz1QHDNSPbCLMwsWCkAsElYswEI/rkSDCFEjTK5ojcAuxSCNLh2MoJ1Et/p6lFwbCkP7L+3OABUTj1VKadjD3pgODuA70iBtDWAGIcU40Q18764a7Guw+fRhAFhzA4+egjXkuqulgsfQRfUlUQWAqB2XGE6lgvshXHrBkbCpIZ+YoHBRj3pysasebfQVcxgmBpKofBPuLFskaW/oDa4ARoZh7HrZXVdLG/Zu6tlLHTA0RnuR3vVGg94aawjBG4y1mhqiketb6+M0ONl3cAjFI/FoBqfDwuqRsFTdOhAwrPd72xGMHKxjvzIQsyb97V4f1NTqNCq4D19tgjexXsM9Qtk1feKaX/JEBD2ERRgfShwBh3zqIHXDeAfHALEgDAYU8sYxll5y39MThVxVdbhpSqMeErzDKtTNwy5bdolKhXpMP/ZUxEWxppDIXQ0yYbDgviPFs4wcUktIfFfK1yrnAENaFNdqUNGN+nEw2ppqiw6oCcTfL3EiHA1b4x5OR3rADwAHVQySPm9EXXn5BPNWGRMUYh5ILyGBx9VKFCNAHbOVrCCzpV0T4HdLzOYcfukLErm6XFPm5D4vkbzrD3cQp9OxW/GCWZ1EalGjcyxxw9uSBjLcDP3OBK03obThrrSBg76s4V1JA+1DGfruBJ3jBzugYgPtv5Pb5b0uLC9Gelf+vjznU+W0K578FAsYClgFZgz5/o2M0yoCNBxAp/tt8mnupAehircb8vuJ3NhrZoJ7uxR3gBpj5+3oFwClD+SPB88ATToNqRZWDGLhX8x3b2NUpcpnKnS64HLafIdEiA1zpHgawaJ6kkX3En0GmreQlyZYevh1Ujw9qyqTxaFdHyjAap7jtyM/glXf+inN307OLJA5ra6vJHVm5i9p71bMK2/xVYjfQoYQKUrdL+q10wl/LZkSTK2LTfYuKX88j8LR424p/1GqBI81T/yfstFIk5VoC2ZhyBfQPpOhob8Ya1q+cB5t4tp7e7iLWiyeZ8gXIRRHXsycROXZBpRK+9IHODGkI5xLE1jJz4EL6m5PuuMd8kLw4svisgMo1fFEik1uf5fF5QdxquvaFKvLRPIw/8bgg8R9zoFWD4RpSxtmzC8JPkTc9yyk6twivAWXKi4T90tg1dSmai59cYW4/zxGdVsfYCPSeZct8ZCspppvIwk14WyRZHtoAqumn2dyMD7cr4iHJRXV9hTqyud/XFQjQBgN6xS8Ix9K8e0vzbViy7l9Ousiksl6PAsGm3ap9LEKImIZ/jvf69n5Xsqpk2jyXZ6T7wJvQAlFoJ+bRwcDGGXUuzWajND0vHxTU1/Rq9cDnoaLqLMbtbrFAO7r7FZkSlQcMMSdVa7Zouv7MVJ2OZyXRCYT3GZh24GjSIhv4Y6He6br7HOS5NaKo0mdDwFJyyLuLaajbcSMPXfohvrmPRZ78k9S/NbWXMMXZJq0E58wcIfAIxFPxE2MGzX5PINGK/d7/WycVzMuhNdBqpBQjxWvoax+rdvD5XGINojz7bljyIIGlY08FrmF07wmFxWk0I/L0t1LGlQNj8eTac5gOa2oxifEWMWI5FaoVKgn4eiW5sKR6dQV1fjkHnSOkwpEPBTL8kiuqjqYuzihgbcLqFSoCoFO7KpzHtoumkOoTtWNdKdyFfeYyMVnIVXnVazFfEx/Sb6uutRi3i91unpZXJWvqy5NhWL3IO4l7pmrqg63KAxMTtxH3CutqEZf1fm16fuJe2c11RxsYR/OtucHZVXVfqt6QKGox4PzCNXn5yKOGGIEL/LhGlYtnUwwlj5sHj+AUh23aNzVaLQbTRG4fVbK6/II1WdbjZwgqdf18yjVb4fyuAhWYYijcT3agg/KpA4Rv0zmO/gk6AM9Xp71KI+m09HuOai84mCfcxF6ZdYpa+nTVjOGeWO/gZX9+sE+4QhhAlqzLq+StNEhWsMqjOFRMWuIn9fWq+UsPjvD8BxjY0ShEeZX4+ADuDdrnOI2Rb9Fo2mKKfKtGslzSrFv01goF4EmDJ0WyTs0EkMpo8W036lxaqgUfZdG01Ap8l0ayUOl2Ls1NmD9KnQ8L5R3GzvYD9TWmspkKq4WV58Lr0zDi+ltXnIr4skCG4quqMancZ3mRR55WZzO11WXAaO8bg8bDXXZzddVFwwI1NzLzxVxOyNPzNRrzFWxz3XVWsbdMldrKduaIAb4M9UEp8xRQdbwJdWAgx2yMTXx56qqtnbUv6zq3gQJr8l+0L+DnqqJv5tD8/h0jozB0ndUU55x1VQW/1437fQHPf3o6mRELwt+V7VotliFwP6HOawyAqD/XqGZDNMPosEWhPM9hU92RzwiTogX4+AGpB/twd6iW0n1t0PpLzGgTp0qplMpR7AvpOWhsrYB5VjShhdlDWUQ2868DhzRi2VGio+R75XitTlciKeQgn5dDlXJstGvl1E3fdnVR5Sd9fKw60aTPdytIitB0chvIebltAAauX9dfCSHohfCV8RvZ7zq1POHpfiohOkmmdsQTaIpfjc3VNjfjUYzkvnH8z0bXVTwjz3E70lUkpbcDD4hexHscch17HIQ9KBLqcxP5gYIdkazQS+Ayqcm3yDTkv/TjFUnIx2LDxryW1kTqwIS4qyD+Kgh/odUKSYKI3EGkZ/X9bk81Fel/KtENnSYBA3xdSl+kOFsnBGB+a8Zpo6Z8lFSfFuKH2Z4fhobIXbF/5Zh8bzC/SjDWVh2UBazGotvSPm/sjYKdNK8z7ek+N8SR74Dn1weFv9FYVvQvF6Ey+K/Q8J8kjzHvdpbpPgJp2EO3My9SYp/wNi9CInUzdN1bAszSsS9yRDPNQYI4GBce/3oDPf9tCFeZfCwOkhDtCfF65LUlIVJwVXGqf9+PWI13Ml7UPMGlgMGEu+hZbY7ZnKfMsRvGmc4UxTs4+zcC+jQLX4sxctyaEt9r7QoXq6RFTVH3MdNJ1HyOdOPpHiFbre6m4i+TRCMIU14AfFK3eIMx7Npmlx9pSHeqBtoB5z2x1gVb9KY2gjmqXT8QyRYcLm2zvgAbvE0SRbT+w3dtxFNuz2a0KsMHC0Vzt4jSYBn+asa42FHhVfdb0TDmXJ0bzDkryEJC4PGIcIeznarpPx4ii1S/E+1iNBQAeWk4W2GeDZOqPCYkMchBtQm8MQufzU0hLbB2NGspprLJH7ljewhcU/r9NhZSNXZijhRk2hT3zdceDZWdbdjWL0D253wPTHM8Ip5jOpW3+1jPvU+CnS5EoWuqebGlEwbK/s0VjA63CNfV13cDWhp7ju7B4gHHMSpriehPCgqvx9jn37g2VjV/RRSjT0kxvjDNIwnHiEecQClOj5VCSHAUQq4GJ5LPnIepfrBjHG8ZiXEOD+Im8Wj5jGq2wYWBrwppbli8WkpH52rqx6b6g0AsgEEZeKarKrae5QTxTmDL95HSUW1jbdo8TdwpMCBl/ULNcZnIVVnLCXma1SFfqSgg1xSVR321DzL0IiymeR59D5DA8MXfEbKF0hIle2WLARtd8qYt6Xsi4VQvBkOhwLPYHc0muJalhT+Ft0PZ8kYqe3bkM1SI4YkuBh3VwSA4Pt0RygROtzkXCrkLdq4Ct3McOAeRD4kcQ+HbBmFAJNoWOmTQ6IL1A9rKqk3+KLERWFX3518SYo/SHxpkCbF6qydNuIDmkYJGhviWeQGUGWv/Akp/pBTU4MDl7EfkZCNbqDdZwrCSQdw+UdJWyZdh6SImVCHj0ocPc7qYWZXnh+X4o+5AwyHE/gnxV+wLLrYqCbBbExy1CllCm9N7EisAHLfX1fRkAWaGBJyI33UxF9nBGJN4acQ+IY8He2Hk/72NiT7cQMXFHsjhBM2eUBvZ4IEEuT9t5I4JYdMBlqOtkYThB3ISdAET8r/qFORdew4MYJJ+Z/kFOquI2QmySPoF/8ZCgGjOy7Sl1jDYBS72wg+EwkXwGDkl7FhxVMdP8Oknm9EuxtRjwl80hB3Gkif7DSiXl+93fQTQ7zUgFFAz6RlsKct6cc4Ixlxf3c8QPCcvL3gdYfRgKb7BmNnusvpsucXxHsNymr48EHiBQXxPqO7iUlyTqLe3YgGmPj7jT3qAgwP+isFRC0JxoIfmu1iPhRBjZGqFB8y2lBhtmPiXhQ+Y4wqRpa7xHt9RB/J4GYK5y9afIUGYU1lKrhqU9fWwjNbgY0St2Kr9FUt4TsJUt/P5DY5Y2EL2lWHbDp1wyhI0Rki/9Zgd0JXRbp3gNWK6znggtwjClvqx656TNUX1LgVvbLmdnBcLZHoEBrS3Qmsj+0RoNGY0eYMGUS4+xsLA/eY00kf/uYfwed8o42WfZCCRUL22T1kW0ucdIBuORo/AY0DrTaaiAhFS9V+NOiBCZDK+pAWcfOWSxQjfyyM0twDvWgLMzkpjDtGuxv9qKrfo2t2sUXjbnMz/3gzffA5hijmrz1L1rn7iWLbCZxynbQp6Cqbf/0CsKRXF3B9XcE1ccA/ONIBG1C506zZvhN26CYc14+nYBPcUJgbIct4QwDJFDB5kuPzjQOzrtCsl9Tl3FDNC/EMvFp30E6eKEC3WSJyRRSR1s4ed+jZ0pR85AsMsZCf+eJ4QpcqWJtMKxYvMsTS3PCMxxKhGEDBWCPkNlQFWWS+OlS1kwcmGtKY9JILf8XBIkQhk1dMIC5c0TYtu0PvfQAx/7R3gDcYL8xpuK2rK1L2td+gl6A09k5DGk4OPU8ENKbE00sNQQ4VovoZnUPqCW24DQ+X4PyxtQC/If2Cj/rZG6mWGnth3HyrT2z1l7OC379BKWnaHbsCs1C3z4YZhqZVsyuwEHShT4ODjvrxImouBGHLWkObGbby+KIabD6+FoV1n0UnQr/VtMzQBij5F1TqDt/cazeUxs/zLxEouI1NBpbDKB1JN5WpFda5RupAXJfG1Uo0i6alX8ISgU0/GaN+QyfTL/3EgRZHgZGdwK7blupWVE4TUAmskqS058oPhmwCIprRhDYkmDZu0xUA1qewSHglgHqK+eeISSybsUbp2eSf6aMHT+M1WD/9TaZZVNRjHLdkKeahkXhnHFqxckKVi8caWERCcgtIrJaDxzpxLDzl2YHlO/xRlLA8UpDU3woZVkBvmhROmG0z7VOshQ1aIqUTActzYRVard1CqEXvVFhj5NIqvYGxHDD6ULDu8CsYK2sufQkI6LDfCghzpGzyV29HHXLuiBLt3LEHvqtO1iSTxgqMImk0sLJjhCBwfiZiLxnQVr2KSAgrQwmSF4ZLSTzoYqyREIPyXrQojRDOoY4YgQgLozgACMMCtY3ZAH6HZX43vFwfQQGCHxJuPdrDPl4S/D5xc4aAYoJaUVEaqu2AKCFfT0+/B6v3HE8bvST87Q6wGyJuEIV5FM0ZK/X98P/ljBlRdP2K7fMiE61mVpFOEx4+BGQ03U5dfetWqCdscBzAkhf6maSPTKkkGKMyxwgQdf7iS+DSBX/lfLPmE86poX64AF2EfTKFsxcaqWcSwhrFPnl6CXHg4Q9DxKohFh8x5Px7PunzNvc1FvoZnRBoZKQg4RQ1l3qC4tKGXOapAH8aZgFq8RzxaQnnBp2CynJcCykvJpMUxgVZN9qLYTyYVIYL0VV4wsgweS7mEnjFrE82YI6LcybC6CVAShKhncnU6Z26BKPSeksU0yEcOscxY/ns48qhbEBsMMgl5bKIK4rfKjI91I5brcMw+klXdUjPaUdw2IeHa+v4iEVydB7XpgUonlcQx3ZzseoPcBmWChjLGWfzJHlnFIbaK+JYmXtjIXvXCu5fa7SC/NQmLL60Zp9KXiDCUllrwrl3+Gt2t17nF1jlybJ7soP9ErDhBdejKMBVhVat4/E3wcW1zE44hiQHGouShIoZq8f6GOy3BqbVDadhqC8W+P0kTN6w4STUqcM4rJviyWaLIWPanyLcBvvT5PMZ1VA8w5l12MBOks5biIhQiIHQvpj2d3bhyWvdmN43XNqCSmECedzyeDLawymCjrmHkLzAJorrfagO9RXMJyfPwxC7TsZhFlC/0wMW5zdSRaDDcUIZdcwUFpKmAo2lGbMtk/mQx01GLcyPUjwn66VzsL4w33Ndi+Tg3BMBLbXBDp1M4V82u8O9bkyHv+RW6ikIIXD4H2i2YdEG1ysRWTwfZNRDq0pvRf55JCKlDiQPE1K1M9H6aLPL87lNGDl0AMfF5kxfsTzlIEVrgGyhkAZqOBGM2bbxfMAryEtsWfJJA/11TiJdWkYI7cHssNGrRS0kv2IPSI8gd0bTeDya6qoRI1LUcLI+0oeV3kojVdO9fhYBaFQtTifzqrqtqB8rY2GPEfhOnR5loEqQdQy3irMd9j/I0tiAew02ccqjCA7D6dFj8UUEw2HqfNI9Biuz6vrrehn7Ng4zfGKVIV2tYjP18PQGzlHJ64GLI3hJHuxL2HqH0Zm0guu6AzxWiMcCoGQ2wGAu/bimejrDZnTmwBQwqV7K3JfpjJIE5Zxgp2wGUV10MvQ0fXexFFONR5EHh03YC+bogLs4oZNDF/k9R/E1AyKeE4DHeFGgr9IdhNgsNrPs+gpEvNtoOKGqGPOPrkX7nAyEtx0zFVCn25RtCIDukuGqdqOYHAQqhYBmgsMxveSFNRLPsScH3XiaaEhRF1+BBs5GByCDm+qvI/7Jky/CRmD5Kf3CxrzSErtxEFrdjrVkxNw/XSmFZGrqRUqYxdlDE0fnYDRIOdJENROx+CZCkzkmeQEjbZ25AiQ4EmpVkqUiCaNZwEOpvHDDY8hFtOGoo95zxllPOWQIHN4JjidUdaNNsUl2IkIehPd35DCRQMAqwyMtOGoQo4GMy2NQBC8QEzxM2hkcGHoLRaZB3T8W++Q8VZRQIo/InvMzMOldjB+JzxpiMU7cGXJyS6MNDLQH/sWiXO5F8NZRU9E8hAWBNcLuLRafM+SKEl3i0mLxeYM+Bpx3QLH4giGPYKgJuF0RR1kXSZ+aWg1YGMfm8N45nBAePykQiukuCfkKSQx+5cIxapkxxOJbhrxoMyf9bxvi4r05OX/HEJfAda9PcPSC7C6lD3SriJ4CaBHGIcVluXWZrO9YfNWQlweQBA4i3fHOLbOI80axjmWa2qv3ojGWCYyWEPrRdGRDbgwgaD7YaHOGIi3egvxIzRedlO7UlhvCJnG/ghtkA/bndSFRUricAu9Hu12kYIbbjRh0DIgOez/wXC1MAZHwF0URA5XpdJS6bE1RzhkUNIy28mTU7W1CK7Tw882b82x+H2uIhxD/gPU9TgiLHyDmTmRvXE3KhDeaG8iAthgoDDMZie9LWcTktLHH4rs4+rK0xDPkAuWpugNtkIvdTUq8iqJYiimfGaRZguWkHtKwjxeHkrqFxDHYY/QTxQq/AA8WSuIwg1oXiG+5inwnOUwQPKoG9rr7A0gFiGPxnAVQUvHvDXlBbiKpsr9niAu3QKmtkhqY70VM3YEWYTJY4fvubBr3e5E93BxgMSH8JrcC7V7MHT2IEE7gpLikH1s4MsBUB/BGg9awNwqQHT8tfmTIyxjlRznU5RuJCmPxQ0NegfWrXEUQPX0Wwaz1yXZRXMnjlLEzb+4E/G5/FQyrqV/FbXb2Bv/3pLjHeIScO7LnJtsAjtni6kp/a8vamVFsvJITA9yIVDvNAh2I+VOSJpqhZ3gpDpx4bkUFawWWVM2J2QFA8pj0wiZRj01+9QtCCncgDkJhiEWEHH2SJ5Rb68NlTDZ39jGEXBqfjVs+V2eKcehj2UPjc+NXaH6J/o2FIaaQzBAk1XqGhWKKWgyx+DG2EqqWaTjqVdwgyOMBmvMESuNzYRf85PKCJS+k/hm0SgcF/8iiSHtUyNYMY5fgmoqs5SRp5Mf/CSs1OZ1Rb0Yi84BsqG02QUtU664ZoqQvphz+MSfDrDv809qF5Ek/ikcDJPIzCoWfTSF50ByqbA38yU9J3q4IYwvy1TXEH0g+dGPxNoRCCREaFZHCHvfA4VL2gGA2noX0/OQgb88piAKlsujmRtT1N0PC9JHnrNuAJP1Kq0oZGk2zjaJg6s8TizX6lYxS7Tj+LtSuw9/F2vX4u1SjX8ZYrt2Iv4dqSeZ1pWabSLAAOlx1XfXt5BGzUvHVrxoepT7HaoS9wPOJ/IX8m963tNAXtYs4IX1xi/5e0rCbLZSX1umngi6rEO7ySoi/V1Qooruy6qy2mMZVgCzT0xO4R0Mlf66uOG0U96SLgXvZ9C3UvaEMl5Vxn6Bh8jdx9yWu7ofsDdG5/y3484BKlZ5+oFkuE5sP0unBB/s08kN8msBD9XXDw+iXH1E+nH6cHOUj2vxrTI8M1E+SP2pN/UiU+p2vawIW0LU0meOEuI4md73+RaQbyvyDSDeWK6SZmwKPzehmZuEx61w81nOsUE34cYHb8vm3Hx/vNGg+T8C5gWb4xLpZ5h/ofZLT9PiXJ59cboUhy8VUOV5AZeJfJ8As1wsT5VUAKxnalBs3fZtmWXVboaK1ikzBqtZkrYE+xBb9Hm+9or4GPlG3V1UufY1+W9Onq0HhJ+aWciKRZLfWkI8AbNDnhvrn1QvIl5IwiqR5qIRmVErg3DMLCc43Kw6RXkwZX0pYLLMqlpMeh5DSRSpEYVcC2/StmiJ2OJ8ip9+rV+Z7NPCcZsrxMZUqAXRBaJLyLkQBHbGsLyJhKWIXh75tE2eAL8Hxo+wq/KU0S5SXkdQV6nKaBMorqFR8XcncJtq4CkNQd4D3ILIor6ZSk7qn6VHeMfnc+l7ZYr733JK6T7Yy7qvlfD/k/FsNXInppXr/Cv0wGM5Q3OsBFdiJhh9Ycehn6V3+8dsHVbL/18CD7YZXg4sgU3hI1eYj1kOxDJV9PgxWgPs2+im2hyfTeQQNp1zhI5XRPgrXTDa45pEerad6DZVagtfCx5PMjye2dl1TJbCub6q53UCa45Q8KjfCoeQ/QL/J599FvxlFwsNjABMbTOyxQeINHocVCvtQKf/HY53i3J1Un0BaoLGeCBaIqSfpRf/kEN5e6Q3G4+Jih0Yol036lXZAFtTv1W2Sl/rt4Arl41BzmlWySFsv2ap2V6vwu/QJtmK+5turCnKUsQI6YSKVRzyt1V1iuw7fcUuLDaOhbqUAgX6Dx3e5d8UxVWcvhW4JsMfGCP//32PSOwvnY9J/jjFpMCaNN1MBiPMflp7/sFSh707QOX5w7ajYQPu/pA9L4b7Of1iquPxaMiWYWheHpLvOf1iqPgnNvgs5/2FpvhV78/kPSxnnIQzgvuc/LOWLxPMfli6e/7BUddyicZPvQ8Vnz39Yitasy6tw33X+w1KksvNCOf9hKRrUux7nPyxNrjsDukRMG16UNZRBbDvzOnBEL5YZKT5Gvvf8h6X0roz4ZG6Ac75Pd/7D0u75D0vF+Q9LsSGe/7B06EKMbL/nPyw9/2HpJudSIe/zH5aiAwyH8+3nPywlk/pn+WHp/wEeKgAAvZsLdFTV2ffPTMIAgYCAkAACAYV6TUBDREyGiySWWjTSWm8NCBIuFhKBiXgDuSUBEhVRFFAoJogRryAqTEjEKKKgSIKoQEGgogkgVFutRdTv99/nzGTr971r2fWt9bLWuJ/Z//3cn/3sfc5En8/vxDgtD3xR0xCIL3Gy/1Tic1q1+u3km9LGZI4fdtXdV13V95K7Jt/22zsG336n08450/G1dzr7YmN9juN3Yn1NhuTfWjApNy/kBHzN7nMcp7lzhtPWcXyOket0d2L9TbJHjctN6tO4oqUG/plBy9uJunjG8WPHIh9NtPZNkyC/EdRDgobmhXKn5I2amHRN3sS7kq4YlXfHqKlOwPnvxT7gk4FvXSHRPmyMb3Ld1NwpScPyx+RO7J80aHR+QSgpc9KoCROTxk6YMjU0Mm/UpNykCdKeOzWUO2bk7VPyb8u9NTS1f9LNo6ZMGXVXUv7YJG9u6JDDM5dOzUmaOCrCNyl30ujcKSPzx/4atttHTZ06LX/KmJFjJoxDV9Lt+VNCY/MnTsi3mO8ZP2rq+KTQqNETc42E3ClT8xUVbwWGjs2fbnFOnJD3l6Sp4/OnjYzO9U8anZ8/MXdU3oVJ08bnhsbjfISbhQUTxySNRnZe0hTo3FAIekpSXn4oaUqu1vy6CExBgdN+DiFPog7OJfYznfOGKojOsNwxEwomOc75PivucSbucSbucY1xj5sgFmLxq7TGReMe99/EPe4XcY+LRspi/lVxtzgV9zjC+f8f97j/Iu5xJu6xxY5zN5/xTVr7nDlZCV38hTV9J8SMT8wJxZKSmU1nO87BJk6gpePT17mrSq72z037cWLMHL8z01rRMtDWXVFYl9mUFcFBMXN/vqJtIDG6Ypy/8HTHjJhCUm6tSAycHV2x1V+8+rU+WjHTWnF24Bp3RVF9WTt/YVqri2MKf/zpU2vFNYEboyuu8Bevv+WymKKfa7kxMJdNre8smeovPJD6k5ZkW0vm+gKPNK4p9xcvWZGuNTOtNY/4Apsb1+zyF2bvn6A1L1lrNvsCO7w1xaFan7+ww7uztOagtWaHL7C/cU1Hf3FN5qUxJKSZtWa/L1Dkj67p4y869fZyrUmy1hT5A+WNa4Yip+fZWtPPWlPuD7zfuGaUf052/BatybbWvO8P1PodPnRUUxAxjlCHGphxtOwux+fzz047MNVGfIEZiTmk3++fkzZioI34AzN6hy90fDGoen+XjcQEpo8IzXd8sdTKio42EhuYXpfZ2vE18c+tad/fRprIgu2OL+Cfm33/szYSkAWpjo/KOzDk3zbSVMhA2VaY9mMPG2nm2daMWtxzpY00D9x7R+0Pjq85e6H99TYSF5gequ3u+OL8sxznK20GDwnMyErA5hZ+vphN4s2zL9A/1vG19M994NJEG4kXgmV40+nkWBtpJQRv4v1zK1avs5HWQno7vlZEbcQPNnJGYHrv8L0Ry9hATT3Es6y1scyaZz/iP1rOwLLXWthIO2l5y/G1wbL8e2zkzMCMESE2aVss+7zGRtp7MWsmyw7ZSAcPiVo2zkM8y9pFLIvM0wem31FLpbX1z+n04j4b6ejJisGya1raSCevnnxYFki3kc7yhupUzIL32chZXszOpNIKnreRLoHpm+o/4g5Dpb1/3Ea6BmawAxWbwryvO9tINy82Z1BpLwywkSRZQDypwdPzp9lId+WAGozGZquHeLEhAm5sIvN0QDcC7YnNyU02co5nGX52evA8G+np+elXbK63kV6efuKZVr3SRn7jxROemm/et5FzPR7aWcVHqpsocp78NJEuzJtykY2cH7WgMC15iI1c4ElrSmyaT7CRCyWN/XEmu3DxIhu5yMtOB3/hgkHrbCQ5MMNx0uVPYXb8HhtJ8fwJ+As7PHPSRnpLD/sgwV+UVxNnI328WPv9RcNvaWsjF3tWJ/qL0nacYyOXCOmhGBQlPpFmI6leDHz+otOHBtlIX1lA3Jr7iw6+ONxG0rx+E+svqsm92UYu9bpkR3/R6jm32ki/wPRw/WxVaNGCQfk2cplXoTH+oondZtlIfy86INnx99vI5R6CtNRdS2wk3ZPWyV/Uoc0aG8lQFnoYq099VGkjQc/qgL/owL/etJEBigFZaOcv2nz4IxsZ6HUDpK264bCNDPKkdfAXzbvjqI0MlgXpxp/b/vaDjVzh+RPwF/daHGsjQzwLEvzFiS1b2UhmtA6K4/a1sZEsZdvUQfHpNp1t5EohxKCVv/jEd2fbyG+9OujsLz548jwbGRqY7ujJ6Sx/8c62yTbyO8V6suPrwrE++TIbuSpwr+MsUVUVrx9yuY38Xv5QVV25ST17hY0M8yrE7TrcXtp5iNd1mpmuY81zq3Ij0MZ0HRvJlmVUAX2308meNnKtp59+VNFrgo0M9yJA300b8ZiN/MHb2fTdmlc+spE/et2Nvlvx+Rk2cp1nAX03ryzVRv4kC9y+mzZjoo1cr+yQt2gErvAQLwJnRCIQmefWGJHFaZliIzd5sjhHO+XfZSM3ezyc/RW9Gmzkz0LobVjW6WRnG8nxpNHBDm8baCMjvMqlH1asvsFGRnpRo7fljS6wkVukJ1W7qjAt+LiNjPJ2FdJOX7bWRkZ70uiuNUd22sit0V1VuGDtv21kjGcb+7qiV1MbyfUsoLuWntnJRsZ6NUV3zVvX3UbGeTGguw5PUkajyHghPVRTRWknMm1kgldTdNfE1Gtt5DZZQB3SXU/7RtvIXxq768HXbrORiV5nobvW7J5iI5O8vUM/XP3wDBvJ8+qQnrNg8kIbyfeiAzJx5BM2cruHIC27Z4WNTPak0V1Tb91oI1OUhR7G6g7nbbeRqZ7VZOFU1i4bCSkGZIHueiD1cxsp8OoAaZvXfGUjd3jS6K6r3vmPjUyTBenyp3jIYwEbudPzh+6aFmxpI3d5FtBde73S3kbujtZBceLcjjZyj7Jt6qA4rrKHjdwrhBjQXU8/eYGNTPfqgO56YkkfG5nR2F0PVva1kfsU68mmu+7sNMhGZvoa22vNl4NtaJZPHlFX9Nf1f7zKhmb7vCKJtpepHuS1lw6R9hKZ1xOnG1Pu3A88Fm9DhUCmFNRiW19nQ0VAxgagiqwlNlQcgbrRZGfss6F5BlrtkCV6TJINzTdQqlJLk8myoQU4ZXLLTS1vcI4NlRgu2hnNJG1HkQ2VwmW6CVyn55fb0P0RrrZqNNts6AHCbmoiiU7Tfa8NPQiXCRRto+IOx4YWApl6oQeUftbWhh4CMtGgceStO9uGFmGhqZhosso96JfJiszr0d+1gUc3N1lRaDGQF0CeUG60oUdRZAJoDsT7begxIGNDO5I1otKGlgCZDYqumoLPbWhpRBdPsBUdOtrQskgAiW3e8HNt6PEIRPbTHrjUhp6ICCSPpycoxVFoOWaYPOpUaD/dhlbAZaJBzSw4VG5Df4XLuIyu7OlhG1oJl9GV4C/scONBG3oyYiGn44FHTtpQGVwmxToa+sXZULmBeii8RWmBs2xoFWaY8FIYib//jQ09BZcpDJ0OHfvZ0Gq4osfDBwNt6Gkg0xu7cz58+VsbqgAye78HB8Szf7ShZ9BVmozLdPsFD42zoTVA3h4vmmguEVHoWSBjIQKzMxbY0HNARiAWpp693IaexwxjIdHoMOgpG3oByEQDM07teMmGXkSgMaMl58RzNTb0EpDZrc04KG7S1SwKrW3MV9Gq7/bb0Dq4TL6wcN7Yf9jQy5hhLOS0um3udza0Hi5TG+04LDY2saFX4DLbIZbTItTChl4FMgI7cFzMaW1DryHQlChnzOm+HW1oA5CxkMPsxMQeNrQRgaZ6af4Hbz3XhsJwmaRw0O3c1tuGKg2E8e05Mgb1t6FNQN4ltnj9qitsqArIRL4Zt/WHf29D1ZHw4vKS0dk29DoWei7zfSbQrgi0GYHGZRqR26Oi0BtwGb9oKZ0+kIVRqAYuY3wCPaqoyIbejJjBDTjtx1U29BZcJoaJ9KhXTtjQFgP1UB0WVnzbyYbexgxTh7H0qLYX29BWIOMX7Svt6sE29E7EjPb0qPnX2tC76DLh5bZb036aDW1DoCkbGtGCJ0ttaDtcxuWz6VHPr7Wh9+Aye9k9Gnhl6vOgnx0N1rze5rphJ7aE3YY+ADKKyAhHgw3tRJHJiHs02FAtkImSezTYUB2Q55SOBhvaFdHlHg029GEkgMSWo8GGdkcgosTRYEMfRQS6R4MNfYwZ5mhAV03Pu23ok4hAdC0YNd+G9kQg8pi9fIkN7UWXyeM5HA3nVdvQPqBw/VlWRjp6kJcRXyQjkXm9O8dytmoPMsKbdQs6AGT6JwHs9MHVNvQpkPGX61PFWJkXhQ4aiOsToeh0jWNDhyKh4JQ8fKqbDR2GyyuMwoq3s2zo70BGVwwZKZtoQ58h0CsMMlJkQ0eAvMIoPP3Mchv6HMgrDH7MedmGvojoIlkL2uyxofpIRkhW9rB6G2qIQAjsMP/fNnQ0IpADNG9dKxs6hhmRA3T4+AQbOg5kNjgHTVrRzwL1pRHIQcO5kJh6iQ2dMBC6gE53z7KhkxGI4+lg6xtt6B8R4zmeap6/xYa+gss0Lo7C1Z2n2tDXQKYht+ew/s9cG/onkKnPnhzWrz9mQ//Cr1UlvYzL2RkrbegbIONyNw7rmyts6FsEmorqwWE9ocaG/g1kStTPYX31bhv6DsgYzxF/YNMXNvQfdJna6MFhveafNnQKLk9g8fDf/mw7fA9kBHIUDrmvpQ2dRqCpQ86gtDva2tAPQMYvjt1ehR1s6EcEmppHYGK/JBv6CS4jkAM07tOeNjTTr2hgIY+Kp69LsaFZ/mgqi0+cc4kNzYbLGM/D4sGb021ojoF6KFDFOwdn2tBcvxco/KppfpUNFQIZv6ItpU8EKkLgz1tKFCoGMuGNtpQoNA/I+KWfdYqW2dB8A/G7jn49CR6xoQURl3mAOrzXZ0MlhoudEktLSTvPhkojxrekpUy5zIbuj3Bxu07bcYsNPQBkYojA088U2tCDEYF0gJoji21oIVzGLzr5gjd0QkWhh4D4agRmDztkQ4siAml6Heark0ehh4G82ijKaxtrQ48g0OiKp6U4CTa02EAmhkVpL/wsGo9GYuinpfy+jw09BpdxmU10euMVNrQEM0xtAB288hobWhqBEFjz1E02tCwikA6wut0kG3ocLuMyfi3oU2BDT8Bl/NIrom7zbGg5XCYaCMyOf8SGVgAZgfSo1AuesKG/IpCvRleHr16woZVARhd+nTrwhg09iUDjV/R4HepB3vHK77juXojMNymHxZjHj7+d8vfa0CoUmVBwmex0Ms2GnmrMCMfrdTa0OsLFZTKt619t6GkDmY08t+a6z22oAjOM5VR1xefNbegZw4VAdlBeTbINrQEye4GjPO3qG2zoWQRGjvLT/5lmQ8/B5bW1wpotK2zoebhMNNgmC0a9YkMvwGXCzgNvdsY+G3qxMRqFHe46akMvwWWM54E3b01TG1prIBONouF3drShdZhhosHjZFr1OTb0Mlymd3FeJ5b2taH1cEXO69ODgjb0CpCpNF6IHhyZZUOvAplLMmdoTZfhNvQauswZSlWv/v5WG9oAlwkU0IKGfBvaGIEQOPHFe2woHBHIW9HsL0ttqBLI8V6Lpr68woY2IdAYr71Qu9qGquAySeHF6KnqjTZUDZe5RCHwQOoWG3odyAjk1ejm4e/b0GYEerVRtGrDQRt6Ay7jF2bMCxy3oRq4jBm8Jb/tXz/a0JuNtVHca2iMDb0Fl1cbxYkzW9rQFgMRDY68uHHtbehtzDC1wRvS0zmdbWgrUOQV6YmZ3WzoHQRG3pEe/PR8G3oXCyPvSHeuu9CGtsFlio13pDUd+9rQdnSZsom2mlEe9MtWE5nXX6ZEAui1mii0wyhKVfOn1fSzoQ8wzwsgreZ6G9oJlwLYrHlzn2+o/nrMGeb9wZn/vlBt35gzP5xzeOt3MReO7bfzyg4zvj+2MqZ1YGgsV+WmTpzv6vxQftIfRuVNTfrDXZNG50+cerEzPHdcwcRRUxynZbz+egY9jvT6/7eIeF+r+3x4dp9vps83y+fM9jlzfM5cn1Poc4p8TrHPmedz5vucp3z3Pb60o3+bz9nui3nf5+zwOZ+yzu885vcFfE0jfyjZotj72zD3Lyb1V5/mjyYX/PRTfbz5y8lO+trF39Xp5vTy4fI9hw8dinwExeg/sb4mPuc3zmM+5yynla/jLKY637l2yviezoVOsr/QT8p73e93fKXJLQeUJvcf4E/MObeRqKyfEYwRkRLuHSxN7sZYnxHjOB0GjAiNykjMaTKgvOSF9JgRoYZgQW3mppTwJjPGlCYvNERBbU7QrKjL7BwUS1bClxlGRkNZOUTvoEZp8YswekuTB6PKIxxnbhBpg2G+LpiYcwNIcjCmsj4vGK4PgJYGU8IHM2LKS1aCrkfiJjPGZCXsMURD2ZfuitJk3wCxNJQFcA8ZclhCNUoL6twIOKdiHF9B7TfBrIRdQX95yVsI2haMyQm9gUu7kBZm4m8SsD5YWf8ZnwomjgZxaTkrTrKi1Iw4/RdDJOb8HvuPSMZFwbrMfUGNWQnb3YmshCqMGEyc1suzP+HVc3yZzWd10F9Z/wL8TwSJ8W74HuZLPb7PlPTvUfVnBH4P0N2dKC85QBCOI2NhBok7wPLYDPlQXpKcjvQ1TKRuykqYb0ZWpBqiNPnrjILaI8rTNLKwICMnNCiDLhv054Q6oqGbpJ/N0uMsG4S5NZJ+C/qXoG6eGXGm3BA5oZdxaosm3mTp10y8iYUd5e6bJOASPhuZyAxSSS8h/XrMfQLhtwT9I0I3wlsgdS1YMoel2zPC9Y+KdxYFt4bJWVj4jjtRWX8QlRsyRoT+KWH/yKDqqdFzUdtsACG7keXxZLXUjLBsNMSI0C4Ex2jFl2Ton3zcdDtHyX24XsYQnbrMcYZoKLsACzenx6iSykvy0LKSz3faCQPxPx10IIGZLxs0sZ6JlRi1O2hYSpO/xaDz8TR2AGEbY2zISlhqRla8ZIjK+rfJUvMB1O5+rGuCHyeYOKVKcwYU1DbA3wS2D7Qj49h46zFO4wNB9qqIO1Que7HQIxxnlSL6KdasUgF9ip6NxOsjJrbJ1h182Ytp1Uj6LMguegHkBKuWmpGJ2YaorB/NysNBTBuEaR9jVjLjFllyFsF7Gf6zqMoVsuQsBJquISIL/t4gXaVuCB6cZEuOg4XyaCgrJOjLKY/lZqQ8nzOEygNbVGJvo3czEx+g4TOt+ASBsfDvR3hXdY1mAxrKWsjUJgMSczbRYL5nxe0ZJO8Ym642vS5Te7b+cpJfiZDUTZH0On/3qe0tIkwcOSIQpK5zMa55RGX90SAtsp8hEHklopSLSWhvqlwuYCKexlJmRnysMIR2bXmJmXgVZfF0mDCuxQ9AWBjez1UYrzLzBegLTNQrPqsxuAHly81opItQPusyD4nlBog9fK7EoG3BmILavqjbRDj6smpN0C8Cb1x3GDmenMdx02quN6ENoqHs77D1lHf1LlGXmcJOAUrMubaRQITD4rRGIiUcGEB5pbqE45zG4pL+QB9EiCsQCKSNESXgFnu5scoQUuE8z34rTV5GFNhvBbW5hqjLvADGLTpXDrHFp7CjVjKecvdbaXIQaQNpBgsUNG28V4jCSiY+UpWL5VtidAF1zH6TUG0vadFIHbxhiJTwAUZWyAWxZCUEKCFklCa3IsevEKhWTKBFhNRqhWeHWGTYAddSCZXp0qKRe2HOMsxcmYEBLxtCXbigdrcqczdEE0zcT9Yuls1H+DKSZB9hAn0i6jKf4qNOUKnK2401daCS8aky/zLLv0TXMjNSGzMN0VA20l0he8VSUHsRk8goqO2CwKeY6IIctIiQWq0wdohFhrkysFRCZbq0aHSOk66shPtZnryJLfcnQ+jw4RBTuvaQndvYg8tJyjfaroPZVJcTqsFMluh4G4ywDUhfTjw+0cRegvgdcnrQJUhGQ9n1ZCV+QE7ofjMS2acNUZf5Glpoj3WZW+GPpSB34uCPkvEJ+f+ayf1YeTToz0o41EiozKjAFiTQIyhAh9o+zBqPKKh9PoO9s98QRp7OQFV0SrifbhdvMxFOLy95lRVbLmdiNRYnc466oVBQlhK2cq19yRC0LczdrZtILRMxJGcPCnurZA+Ttj/z5TAAQRGREq7gyx6kVSvbtaz4EP43mDgoD19ixXEmlpoRLTMNoTPTcVjRUDaAXO4i0smMVVrRFeJp+LsiGC0ilG22OZNkm62DN02QcwuTH2fE6FYh06VFo5Oie1BfXCdwIghXY2cxRBQS4WzlHpkSPgMz91dSXUeQtL+ysj7Mhhydjr6F5LwVzAsJ7RxtooXcMV4HDXNWNminHEFiHBadgcA42ZxsCB0dZoVOdLFoNDJE1GVeipxrYKvXRswEuSo9K8EYdTk1fI4xSEI1uiYW1G7VBjhCnW4laGEsq1NIZJGqaCGGEGcROlG0oqDWr24iE5vRPGQidwzXxGYU1RCEskIWiUWjkeEShzHzGlbs0cVFJtayqi82v6e9ew7IVr64hjkfm5ZdzEQzVcOthqis14buqqh0wsJUJmMpgBs0oUvfvaT1ALvrEXdC54FWlJds0kQnvuwwMlSIRignKnYUmxHHlhuioPZFd4Xj1BgWWWhkuOf+Glg+ZiVaREitVhg7xCLDJMNYKqEyXVo0OrNwTF5SPzoEtqczOmzKRaynkhrKdrlEQe2FRBTIcVq7hC5ViTmJgta6RESOJJ6DzoeC/nB9cxq3R2QlZAZZpOx7hCDTwkx18w+F7jnENV/B9Qivd2QagthdjfFfo/QWlvyoNjkFUbGc+vOQTUfi0mtaVEp4nRlh+dAQWQkn3a6m5WpziTktuad9olCdydGyAQ1nsortKUKtMifUEhe+0W6MpWXdRqmfRAvdlW5C/JM5HV82I0KXGqKhbD720JbqMqdiYZjaH4XFNK7K+quZWEAJZ7KCHsfbkUaCALgRYCSKiTnpJApTRKhB5YSGsYaOVV4yAiSG6pmBKbt1c3uQCXWKp81ISb9uiILaD6hzeklp8kEUNcG+ej4X6+b4FchI+L9iJVpEqEGxaxlNxzoIsQuVO/mYnvY6qLqeVh3XxnnQELpfajURyMFSNcphTFS7pquVapQWR//nju7hunRyFRbB1Y6HXoLtEfjukHZdij2CwzyDwOwyBJnZBpTNDlvPxNp07PorSuorS5PVhOsrsfx3hshK6E66Z6vV/YNbbXdYNrMPuci6vTKA5YtoMFfpYdO7bqp5Rgmzi0ToiUsPp+ayoechTj+C+7AZmSg3RGnyOoJMPrAT3n+hczux6KjQ7cbmfsjYjfRxQaeYOFTWr+YLqlzimK6LR9ItIgpxRnKi7Se/Fw3gXngzQj3Ccc5R87gZdbH4PIYPD/OlyXmE5l3WT8egKk0UYfs6Jh40IwYtNkR5yTIy9apM/ivRCONDGbI2qSKfQ3OJqvhpkP79y0tWaNRJshgD1MHnSZ3iPRZDHC4egzSmk/azIDan54SaoD9XEdpPuF5B/36CEq/d7HrjTPt/7f7S5ObsNY9wnB4iBiPRI3Q2ICGGresRiTllyuFgTPcIUpBBhOK4uHgEGlwVjI7zJG1HSYd0j05FmafrPjjtEXrE4zrSzxB4PRShDs+qkymqgJqK+xRbmlxhRoL8liGyEj52V5QmH8Ugh6uSnmgRpgdPEcTDYZmDTS3oQywN17fH0ngmepqRku1nCM4x3PTpKTQbQceIvMZK+Z0NivW6+zO6RGnyq7qfpMJUR7ouYi2Xz5xQT5YcJ12dzMiERGsva+ft06n4A8Zvp0J/INDrtDlFIFX3O0aX0KMgFbEVv3bCvBEVB6RvDUvUCB4xIx14riHqMvNx+O8Sfx3EPlRk8nlf4ewL/+tM6l7wnEq+LyyoUTIYHWdDE9XGX1jCG6zykjRDkB28MI+Pb1Ase9PrMh9knK2Svpwae59EauyiTXc5NTYM8bOZ/Is62momCrH9MzQ8oDS0IVOPYualWPW4zMzBiJVU2GxWlUnG46C6+T+LuU/LVT04PsOqGliel4x3MWwtk+8SHZOXd9laHNAiUsIfmtmCWp4X9WhZWX8C3kfMyIrJhhgRupaVh3WUXQzxESb3YtU7ehqcie27xLsK278EOUobO62JRKzSy7MspHPqOU4Ii+JJ+MNmZGKVIfRkmxNqobv8u3imHbUX7zgGy0tUoD9i+zd8jsndn9D7CSb/BMtGPc9rgqyUl2xrJDhgM9gZ7xgCL96EO4desgHGFurQL4CMZ/svZ6KkP9WtN3BKnptN5XUW1GJ1piWGcHfRRr1j2IC0/Ti5Gf9aqNrexchz+fIuK4bqwVhxnacQvA1vIXZVg85RUb1CPmfy5VkCNUN1uJIA383yR1l1pyZKiXYBX4owbapkTITIZ/lwPmM10Y/lf+ZzLqy/01bpiN7L+HTEjrPcCZ7SOTguJZzVCoCKezGJcp1y3uBaFSljU8+ExT1RogSICzFy2PNBfXfzNEUsurN9V3AR76l9P4lYnE+7mMRlso87kZXQz6woqE13WRrKBpFWB/mD9BrkLEPwCzD2sCIlPISY9qMShuACMkRIqFYYLWKRWskw47e4kBN6BjkY7BKcS5wQ6RYRhXRA0UaMM9TMPgzrrHrbhw/nolbXXtQ2lHUmN/1pbIOYCMr0cegfzA1rvhkph2WGKKh9ihX4wgkPy0Dcfw3DBuglyBqI81S8q/HhPOKwktycr4llLL0AHxaZEafuNYTe+ybm9NKKm1iq4OqtC3dWEZjs2szo6BlLjQtKl111zA1VoCXhKAHiQoyUEQe58imD/+/EGkLhIU7/48nC45G4CFMIdQFl+EHMjMfMF8zIxHZD6JKVE+JFl+N8S3j0Bt2hfR9T5asTfIhA9fO1MsW7SXH9k3SXyEp4VhvqY6RoM21FyF4Z8BqMx1j2hBnRN98QskgvplhxPdtmH8uzmNguffJ0E6tc1801Xs7Syqobva7LvIT1HqHbO16nGwIJmcj/Gvh6cvGjeu8ERMXi5FzsbK70PYKN8RSpF4bS5J2GSAkfZZvTvxrK/Hz5Dn69bv1EQtuwfANy2lAxJe4E5wBlEEdNfaNXKH4CdRs76BhauManhHfiVvIm9xUh1/ic0GJD1GUWIodrfHnJbWgIp+s2aK7xarm6xssXc3t3o+AR0QiI0LZQCDBFhK7x2nvmGl9Qex1IDKLuwJTdehFVwoTeVZSZkTxUGkIHM1nTE/k+FDWB5TNs5Bqv67eu8RqNFhG6sXHGMVbpSPkbxC7Q7ajlkq7Lg1ZJi0a0lBhCfVEVxsR18H/IZwgT1a7pusZrlBZnL1UvF01u5XSUyAm1qcJMPUlvqGKvkSh/NTGNBzmvGiMyckIZ1Vh1t4lPXeZjl2tERUlYBBGv1MiK/ptEAGzKSiCkIuoyv5D0TEMQCDPi0WOVIqhyRyO8nejOX1TxoJTB/VcTi8j44iqNvPOoMvmRzdq8P2So4+H1FkPw6w5di57IEUYqzqfCxpNq2pcItVGtMH1VLGq0kqERSzoHReiljlmhl69i0WhkiJBQrTBaxCK1kqHRWWV20jKW8wrWfS+Qyi955yJ4u54697PsbrxYgYs/6bDVLxwDye1ArFygJ9eB2L+eCe8nD7IOy7do+cVPHg1lS81IejYaIjFHrzTpL7popoR9bKpTqOemwg/EmLyHVQE2VpUuJp/gGPWl24n2kOO8hUMHdMtaD/IlgpaZkXzNMcSIUC4j9yDFQG9Q9Xsjb4+0oguSnyFkXfCSKhahV+M6n/Q6lGvXYFb4YBkDUKfnlTlMPEkclpkRC/VblCZexZYNGfjwJtI/IFPbYeG5TW8Bykvagn6CnN76LS1ActmJ8o47EAH9HpR3xOUlx9HbHt5dmH1tOsIqMcZ6n/wHPcc28FNYp2quyg0EeJA2wFpUeQS/UumlyJ8biZzQ/CoDRYkouwjnM87cgtp4aazG46Ok79rqyvoatsywai5Ry7BnaHVdZjETmdoQlWT+kyqM+zdEfVW4vi0Ofq5yPx8rP2NDpKP9TU1cja4yJmRFnyp0TiAG9ZXYVR85yNuw1hAP4sQpXfAWuYR+vDVQSrg5RQORmLOSVC6uopSWoOk4gksZz6zGlvuClfUXV3MhhHmw/OhvHIo4phMWANA83+mxjsNJXY7RJaKQCH6G103kyf9pnW7nIkji3wzRUObj5EtREbfn14GzSXE3sttaE9rM/wq6YzhoJvTqtqGsG3cSyiwroT38L7PLfbBenEHg9hrFEQNc2xNz3lJ4VhgCD98xRFbCEQzwq74dxPZAbFOkjdREKyYeYKKVq1gEmWKiKaNfrUU/Y7XB8M/JS0ddVbaBqi08aUYTjyghdfpTBl95SS90EgYRNAkx6tGhO1eDTqQ6UR2nNRNnIOkbItZM2/89OoXDbn+ECvtGb+fKONxoDHWZv2GJXnjlEuX2eixdRM11Qdgiau7cASzVixNPnwhthKyEYuhBAyiUYsqMkqZs0qOEqXY90UQJsyMERYkouwjzE5ncJN564DjBuhZa1wpOiIaye4jAmfpjgJkukRN6LQKddImshHac8x0EnekSDWUpZAMoJXxVhOhBwFHhOE1dQl1JT0mw17qEChxENznXHudp81i6NEiFV5O32w2hDsw9rpoKaoMP/Sn3I0Ssi46+Z9icTjV9jQqpqkLH2Qi6pYqlF0EsrOJADFJ0VRTb1Ux8UqULx4jQV1WkTk2uSbW6jkZYNhqiLvN9dvqOKi5Nh4j4oiqN2LaJjX0IYdv1/uaAIeDZA1RBHj8IpoTv1BXobYTobdirbNUaXYFWBzlM0/XziUa20g2GCNf3wLsuGZTM3zD+/gz31IkJUvP64Wgg/IORU+pO1GVuhG05K/doYi/H0K/5JUnJMxc+XUh1A9S7Be9KuAeT9ar3AC6Y2+PhRsLksKC2hZtMEboZcHbonUoFYdULIr9uEt8ipXe1fs+prM+qpsyrUJjDhJtFVbCoLWr8LxlCT58p4X8oerW40Ip8qAdeqrPiMCtGYcZhrL/fnWgo01PQHoDXg4gXy4d8eYOR+9Sv+7lIfwShn4u4sGhFV0JQAX9XV4sIxxkT1L2hvKS/1A5EYBvk3ILqf+oF9UwmthD9pWZ0tsSqP7TK0J8PsFVa4dT6INGoMURl/dck7A2dtW2QvAO9bZDOs52IlDD9UkRDWRe2T1ck/mYAjpzPRG/Cq+fINDWbESDptFf9ZQgPdHqboi2sw00jwtaC8DCWEn7CEOH6hThwri5PhbjWk2zPpEC6qkCmMZFIOqchvZU28zSW7lV4RLyHefmMmxXRsZi4nmXZ2P6cnLgMtJwvZzC5Qo/x7xnH5bdGnazueWtsFCGj+dGi2nhRXhKollu8LqtC/PlYsrZKjpcm/05XzjYYf9Umd7wgA7dEtJPiNkRumBfOcW585ZIUazSRNy+XXJMeNzaWlzwq3svgfQiDszGIFxpyS2+x5WdiznjX8ZRwNqo0pqqJKUaDMgyiLSoVtJZNJpw8tnAJWIgG2osCro4rvzVisxsAtyrEaGxTHNlPzVDgEVFIxK95wqXh6U6QivEeoQdbOt3lhsAv/e6hF6Eymifcglr3CTcx5yUzYv37higvOYwXTfWs9x1++WjLforpmOq9GeiHaNdfmPCEKwIDdBXYw6xHmCdcEQW175qP/qIG5jBfjvFZzudYkJQvMIT+lsM84erhTk+4NAgmtis58nQTq1zXzXZqKHsRMx9XHl40YaKYFhpCbzxN/vVOTwWhURXCUSLiArUSEVdt0vXbVJXarFtmQXipu8Scc7AoUD0i9B/SQmWWJq/JUMp0RGok2u55il6dyPPhrSEPpHtE6CvaczLp9qGFgtDLM1WIRpUM6WiBmalqUCJUVe2wnTJznLOCqjs9UppCzEoYCu9DRGMKk5RqYs4DCHkcFjcAOp/dU9vYKEJGmx4gL9QU5JbpEvJTbUOOmz7iRqILbWMyhrTWaT2ZCByT4slEfQezCifdSfFVYUqxRhN5bWjUyKSlxkaz5WW0eoC8ME1BbolHfpq2IcfdPqJxryq0BbytdPNRkBIpNR8R6Kqfjb8ivj1xooaw0q4UcNLIxC+uLW5VSI+xTcXA5rm7kYhCIpzV3G108uvUZ6tcSESelCEDXKKyfgf2ttBPYapziKyEh+BcKFnzXCLCriT8cheqXKMEiAsxcnWtrP/QnSqoHYWkudL/KMQa7WuehfmHfneNsxg79RclbAY9AVzLOu4O1C+OPZLO2zsK5IhO2z4gS6r0QxTvpqvYWR1AulTrvo8N1VzAZmWIIIILaJHdqnmnnjFC15vEnOc4rZ6q0u9NWQnxmngvg3MtnZcPGYl4SNT2EXQMiFjiOP8H(/figma)--&gt;&quot;&gt;&lt;/span&gt;&lt;span style=&quot;&quot;&gt;&lt;b&gt;User Model:&lt;br&gt;&lt;/b&gt;&lt;ul&gt;&lt;li&gt;&lt;span style=&quot;&quot;&gt;About&lt;/span&gt;&lt;/li&gt;&lt;li&gt;&lt;span style=&quot;&quot;&gt;Email&lt;/span&gt;&lt;/li&gt;&lt;li&gt;&lt;span style=&quot;&quot;&gt;first_name&lt;/span&gt;&lt;/li&gt;&lt;li&gt;&lt;span style=&quot;&quot;&gt;interested_projects: [array of projectID’s]&lt;/span&gt;&lt;/li&gt;&lt;li&gt;&lt;span style=&quot;&quot;&gt;last_name&lt;/span&gt;&lt;/li&gt;&lt;li&gt;&lt;span style=&quot;&quot;&gt;member_of_projects: [array of projectID’s]&lt;/span&gt;&lt;/li&gt;&lt;li&gt;&lt;span style=&quot;&quot;&gt;password_digest&lt;/span&gt;&lt;/li&gt;&lt;li&gt;&lt;span style=&quot;&quot;&gt;portfolio_projects: {hash table of personal project info}&lt;/span&gt;&lt;/li&gt;&lt;li&gt;&lt;span style=&quot;&quot;&gt;portfolio_link&lt;/span&gt;&lt;/li&gt;&lt;li&gt;&lt;span style=&quot;&quot;&gt;show_portfolio: boolean, whether project should be on roulette or not&lt;/span&gt;&lt;/li&gt;&lt;li&gt;&lt;span style=&quot;&quot;&gt;rejected_projects: [array of projectID’s]&lt;/span&gt;&lt;/li&gt;&lt;li&gt;&lt;span style=&quot;&quot;&gt;role&lt;/span&gt;&lt;/li&gt;&lt;/ul&gt;&lt;/span&gt;" style="text;whiteSpace=wrap;html=1;" vertex="1" parent="1">
          <mxGeometry x="690" y="-570" width="410" height="210" as="geometry" />
        </mxCell>
        <mxCell id="4loPCg8nlwmWD9Sx91Vf-1" value="" style="outlineConnect=0;dashed=0;verticalLabelPosition=bottom;verticalAlign=top;align=center;html=1;shape=mxgraph.aws3.cognito;fillColor=#AD688B;gradientColor=none;" vertex="1" parent="1">
          <mxGeometry x="200" y="70" width="76.5" height="93" as="geometry" />
        </mxCell>
        <mxCell id="4loPCg8nlwmWD9Sx91Vf-15" value="&lt;span data-metadata=&quot;&lt;!--(figmeta)eyJmaWxlS2V5IjoiSHFaNmRFaE1LektLNTN5cWpIdkJweCIsInBhc3RlSUQiOjE1NzE1MzIzNzgsImRhdGFUeXBlIjoic2NlbmUifQo=(/figmeta)--&gt;&quot;&gt;&lt;/span&gt;&lt;span data-buffer=&quot;&lt;!--(figma)ZmlnLWtpd2kPAAAAlDAAAO19eZgjSXVnREqqo6uPuS+G+75nek5uUqlUKbskZU5mStU9HiNUpawq0SpJKKXqqTHGXLYxx3Ca+14Mw4C5jTHGLMYYYxZjjDFmMWYxxizrZVkvy7Ks18vu772IPFTd8O3+sX/YX8/3dcWLF5EvXrz34sWLF5maz8pGFMfd7SjcH0dCHDvhOs1OEJp+KPBf063YHatmNlftAFXZCmw/Vze4t92sAC4EzmrTrAMqBuGpug2gxEAnsInWAvdlyp1gzfE6vl13TXpysemGTvVUJ6i5rXql0/JWfbNCzy9psFNxm1RfTuq+XfXtoAbUocCym3YHaK/WuaVl+6eAXMkjfdurE/JwxalWUR6x6o7dDDtlH6NbZkC8HTVv78eYzknAgjpLc3MTYgHKt81Kx20yCcGVdd8JiRvZHPUib6cbR+hmoSm0aTbo1HDbDMr1/rDXH277swH1abrNW23fRYNwK9xOFJTc741GGyhRca1WA/wBlJbZbJsBIGPVd1segELVNxvUr1h23bptNjuuZ/tm6LhNIEtt2wpdH9ACyRnlYt1hskt2ve54AYHLPjpBgayhQ7692qqbfsdz66dWmcgKhmpW7AoEl/U7HNoniaUjQd2xCHE0ONUou6TtY04TgzUZe0EQOtYaierCoGZ6dmfdCWsd/exFlttsgiYzeLFFllWuu9YaapesO5VVtpJLQatBM72sYVccE8DlNWe1Vsc/ar4iAAE12Ss12IGw/bpJg161bgY1pxNiZNTu0TZ9xywz/1eHGrgnAx0L8kDtXsFOdxyt96c7YXT7VGnicHBLy/RttAp00kKT4KXhsp0bIaiSWGCoqBbSasVdJ76K55JfyTN9s16HxcMoGx1fT2dhHl23q4RdtJurnYoJTk0efInqsO0WVZapUnWY6iGG3XrFJpGulAfRsNeASUG8nhkEnbAGXlZpmWAh+w1enLJi+ms2MWo0WvXQUYujQHYCMyi3fGoqWm7dTWsllj4/sxDA0Bliy8ITFReaQ31JPZJUlzOtHArcathhGqit1Ey/ktZ4Udq+rczniH3SqrcCKBWVozWe77HADFuphV/AowC4sN5qOE03cEIa4iKv2x9q/S0Gbt0hRQnItOJgKWE0YhUYmaKoZHlgaQEkFHRFSwG4QopDJ632otMweWYlLO8TDoAFZxduM9jsDiIldPg93w4tlnfVoelJKIoHCZXCCvbWVrSpGS06WA4+vJ4Jy0GjqPiul1Vl1cXihAKbFayTFvFllE1rbR5VIMO12ActuDArR7lg0fLgF1DKurvOAFgIFQ8BDKHesUyPPEsxq8GSfIv9VomIVqLN0aQ77Y+GeCbxThgZaoU4AUtM11mzMyMzmrPdjWjSGvanMZ7xTZqG8JyTdj0AIMER/DLJxbBGw3g6ySkNygReUDuzKxsmOWMDY2iRFgLL5AkUq6BY6agnSrrCvReC6WR0OjIH/e0hHkiJCbgoh3cU6bZCDRqqs9Udw8iS+WEqrG2ZOgHD9H13nU2IJlFQVfuWllOHw8fqBbKozYTWZV1LMPEKKWoh78cWM0/VuRb1pVz9OOrLufp1qB/K1a9HfSVXvwH1w7n6jagfsRzfyo9+VM32xKhPkmlgB/OBFWW7bdMMZDJxozwaDaLu0B1HifKLraZafBAjHiO3C1gGrXLomwwbJ3lNsi2y8GujSf+O0XDaHeBx7dVyuoWdshSMEy1sGFWHOcyebkeTaR/LinCuh6bco2U3DN0GIKMxmsWRNZvEownkU7GrJtwZGoTluwFWkeMDlvYpm5YVTA81A4ELD+WZmArcmwXzRb3osUsrobCcOqCFBjlJemQRKkbMA2gp1R9Xl9tYyKNJoz+ZEAPpCmGto5QMwKnA2cFNh2TCRqUb7yhfYVjYWoASmYFL9idqPRS95ipQ4oRnUymDNhWGV6EIpmDfPh5NpgfXUAH7K7w0oiu9UESCwO7K48sEUbNpHsAY9e7+aDZdnfR7ikhRLaucxDMGDbXKCtkzXnc6jSZDNKGX4/EKgdtl9ytZn7PpyI/i/h0gnYqI2WHJpHzIFDLosXAyG25q8zMqTkB7NtEUCDUdlowMpvuDKIj03KE6P3C17wttkyxEWrAuZSuIFrF/Ni3aKwqh3fBc3+RIsZiQgTCnUSrJs7YQgDLZAOA4upunlRrTOdXgfG+FdJkDib0PgRDDqjfbNYY7S7pKpEYZRkYuBnCBH7BGMzA00c8t/LTnIHatnILZCim0LOZIlZjUiVk87W/to+mnUvFMy+7AFagwV3EQKKWxfwUSYW3g3Gp3QhdOheUxh4CNQadOw0N8iBq1oI+avDeK+6RLRMJAaT6FWYaUWyqShvSHWE7ooxSAEwFPQHkcqLVDBxHUZctnoZaxEaIsWHWXQ6QizhidXLxXankIoOwOB5Edv9UMHQ6bFxySajc31GFEkFiLTE6YVQzXob7YJ1CXDRcnng6LzVCwaijgqRqFOICLqgG7NnUrqRrHhgvo5UFMtCySKS1VfHMV5TLa1uxTyWOHUG27KrZeCSfdoRKZ4vEq7F8IJcMOHC52Mh0LCSwMiLBtA5RVHItQGojPEVdXfTeNJgs5VOJ4izmccrGlHCb1sQteK6gpnCa2mGESWksZSpFazhAppUN0JFI4TWklwySUDmcoRelIhkgpHVWMQg3olBA7NodM6F0wh1UkL5zDpVQv4pE0VhO9OI9LaF6SRyqSl+ZRKcXL4C0cq0NtqF2OMAvnXrMJJ8ImfwUCaReBV4a50u7GWCFK40dxVLZaZcdCgyDSSUUi6M1VDVrpKmbFE7Qq0qYi9ZvDlNSzc7gF5STT+mLg+crDLq3CTWAHSxHLumuKOKQgNnEsP2XfK/PIcJ0W++EDyBoOEUAfCTYno8Gg0p+oxQ+m9Sr5Gf4UEmZ/p56F55jSeo56cDXTCO32SQ9bi/JZFihQjMI1udqCU5dGjIM9BgO8KORghECDQcMaDbCTy+JELAu5jT/GBv4UuvhTVJs9Hr4dNbmPP4YPFHpniDP4U9jBnyJTCqajMR7YJFjcKuRYe0F0MBrd6aR/u5ALu9dcg7rcveZaFMbuNcdRFHavJWRx91pClnavJeSC151gf3KGvQjPGduzfk+czBFdETr6RuNedzCL8IyccSR+lTCqkFKzuxsJWdjq7vYH++gvY9r6ABggMo03J/3xFLUC9W13J/0uHpntRpP+ZrW/PZtAtNjs9CFSwOygTwASp0/O8gDmYeYfDcbdTRj13LMe4jEX+tTbtcQ5V5+7zkGgSsqlCeYpwKcjV8EwwhOYM+s3/7TVHccw5uwRrD8+iUkUnaRieDZORcR6AYhOWqOIF5khAktAYbKrABdy9L1E7nm2EBHjLwJjBCMAmJ+AhQzlpL0c2DQvNYkYmx18NepOWcB/Jz0cxNAkrOMed9FcGJYXEL5A3KBkBlGWdD5pIXCaFBkuun6liXLJrPrUvlxpsjM61Gw1iKUVxK+UUzmMHY+mdKSiyqMU2KI8hrMdlReYJsfSF1qqvAiHCSovDlT9Er/NmYFLaWGivCxY52zc5VawTuUVUA7hr7QsTuZcFagg5R41h/NtV+v44J6u3yT+7kVCQXlv7G+kyvtUQj4y3rdaN2ke92us+rRB3z+AraF8AIJzGv+BVcSSKB9UU+WDa2rch4Sq/tBbVPkwT5UPpwMHykfUq2WqP9L1uHyUH3L5aE89f4231iQ5XVuH+0B5HCXxeZ0f1ql+PUqq32CW/TbKG81ym+o3oSS+b24rOo9pgyGUjy3X10k/j0NJ/R6Pkvo9wVyr0TyeaJ3gg9STrCovhCdbHtdNq+VTvzK2eqpbcG5UVqqKvl3FeR9lFeVxlKsor0NZw7A0noOS6J+oqflgtFXip15zT5DdICDkWK7pIJBA6Z7wbroZpXfCu5no3HLCe8w1KP0T3jXXowzqJxr0XIi8HfVvYVcjvbQpzkK5jpL4ONlYaxD+VLPOgdWtzdZaiPLnsAEQX7ehDFD+fBsCR/kULwgJ30FJ+Kf6az7Vu75Xo3LDb5VJ75sBAkyUvVDxEYVNDvW3oCbS33YbySKUO23V3m+reT+tvcb2crrthz7KAcrjKHeDAJ5XiCFKqo9QXodyjPJ6lE9HeQPKCcobUcYob0I5RUlymqF8DMq9IIDPFuIMSqJ3O0qit4+S6N2Bkuj9Akqi9wyURO8XURK9Z6Iker+Ekug9SwbBcSL4bGm1mcPnEEAkn0sA0XweAUT0lwkgqr9CAJH9VQKI7vMJIMK/RgBRfgEAZvWFBBDlFxFAlF9MAFG+kwCi/BICiPJLCSDKLyOAKL+cAKL8CgKI8isBMM+/TgBRfhUBRPnVBBDl1xBAlF9LAFF+HQFE+fUEEOU3EECU30gAUX4TgOuI8psJIMpvIYAov5UAovw2AojyvyKAKL+dAKL8GwQQ5XcQQJTfSQBRvgvA9UT5XQQQ5bsJIMrvJoAov4cAovybBBDl9xJAlN9HAFF+PwFE+QMEEOUPAriBKH+IAKL8YQKI8m8RQJQ/QgBR/m0CiPJHCSDKv0MAUf4YAUT5dwkgyh8HcCNR/j0CiPInCCDK/5oAovxJAojy7xNAlD9FAFH+AwKI8qcJIMp/SABR/gyAm4jyHxFAlD9LAFH+YwKI8ucIIMr/hgCi/HkCiPKfEECUv0AAUf5TAojyFwHcTJT/jACi/CUCiPKfE0CUv0wAUf4LAojyVwggyn9JAFH+KgFE+d8SQJS/BoBd1F8RQJS/TgBR/msCiPI3CCDK/44AovxNAojy3xBAlL9FAFH+WwKI8rflwTQLQqsptmtxXMgkxDIopmx0x2MKcqSxNRntUlg2HeGvUR6MNoSUG/vTKBYFqfI7wijgymiH6kOKyBB/9brTLvddFIV2vxeNhGEkfeLrWpMBdar2Bzi5WhRNmr2n4Ugv5NKUmEKcF+90e6MzMUBjp7+9g5zBDuI+RJK9aNrtDwAVI8wlpiADEeUecgoREjeAF6bRLmf6VNPiXn8DZ89Ngpc4p66G1VeEwjj0/3fITURMky7mtiyWNyZEc4iRUTvEzAjjElbABUJukiAQVhsjijCnFIAX9vpxfwPRlhRFFPoq5KgoxYjEY/FUuQDaw3hrNNkVkHWftfFMscRAuIPoeUicP1Msd4fA4UjhUAsQFygE4j2Eo9DZorgQ9Xzu/yJxaDLCAQRdwMlKTA0ADm+x+CxiVmvtOVIcGdNkqtwENy6ORrujp/Ut0PGQnoUYF+WxPbaDZ0lxEVKp2/0hDik04nq/N93B+BfPYWsRiQroSyjkbEADFZiUMEqno32xI+QWsPX+MOkHnRGm0t+OwFABZwLUVKA6FUWqrKuOJaTXUeOYl6dmFLq4KA272xhLEtgkccA6k/XASVw1+NHNnS4F79EkRg+Z1nggp0KzNGKC3b1oglxiFHahNfF9KQsDTjByAuo26BK3GwNwH2MbkqXtwf54J8b+Ixd66Q1FjN1HLqrH2hgQKHC4tAXmU2k8X8rlre5gsIGMVBUNsdiRh3ZgThMQP10e3Y4B7pRyBTVAdxny8DTNQuJsOdFnr5I4ovFRL5Xn0VqOjjCKG8je9WLxFBzB1OrV57XCTtIP4WgJuTo9NWEsYq2oE8VtQp5hLUNN1HYKQIGAdLQi1cx4E+dB1Ba3+pN4aiXixbxLsP18fWGVZCaMhc3R7m4XjGlnk50ebxNKFeAKPmgL0mHhY6iziXd7e3q5LlRSBcBjTXAexpThslJKhjo2s/iNwh5XmtH0zGhyOmFhiNXYHWCwHo+YMHK2TZCjRboZ05AkzFiclDLY390YDTT5mCsYF/5XwQmRmAgYOAzT0g9oaVYxG7gPCDYhm/hww2BFyTFwCFdwcMOyXI2G5LAwTzWWHOUpywoOqnvkLXZnU+KXnYTqacz3REXbpsGLCp3BsJoRjRpA0JAEc+9HWxGO/JC0sbzVH0RrWMtYRzE34qmTWHWKXK2LvQInd6LigW89lxihlCwmu09p0IefnezThMNRMNugE/8GuhFC3CHJOMajIWxKDbQ4G24NKL1Pads8xaV+3Eqaop6QYllxbSXPN7oxTEXNv7CZYBVVOZ5tDPrxDojRuMRtOAqj7m49444GMQ4OUnCwC5PduZg0CTSY0qyNwkjXiZS7FZwBp1CF7kwaxFYxx8K8Ss5Nt338/4oyJ4+CnEKSRxRpddkrjCXetC4hTrAP8Ka1tRVHU1h7YdLt9We0wxWz3auEIt29FuLxJOr20GMx3hmdgayx75YjSLBHponuSyFta7yQneEWBQ88nidkb6asFg8bHvanETVUor3+ZnLNlKTb6DzGV2HSwgmZcwYG45CBo0wN6gX1oJ9sc1ga+mHLWu9wDCYPDAJPSBWEx7BbvbwxG0zd6UEf/a0+XAoMF08pmh/E1u1ChvDknvZNIREQS+mdhUDSNcnQSoLTFoNqSZ62gDQh5pH0LOpq2rmkEUl/3Pg1W3wWXdQMlLFPbE/IkTvZnQFGSWdNVw9IeqrbA8r/6otleRYBNYf0SZy1nUoneZPh7O4mDA0Ol6zMMDZSNFP5GESZoazEoJpdRFgsQ+4lSk2zjVQPZ7MEUtD6VQwZrHN+yaCS3sXiDrhZ51w038sUbYRtk2mAaA2LNIbziWdbW0hWYvH2KdjgAa4RSGxiKai4+HZRiPe2acVzPAAlooq4mOzzU7Bn1NzZlHYtCg/QDmcDmWIPdofIRUqY9t52dTTZxOqjW2p4kNMx0EuzODI34tFgNo3KNF9CLmsG26t6BGE41U7TtnXO16yvm6cCALLO8QDdU2IWU2L7esFRizDgO9PlVhjOdgMsVAgvFtiU9eJE1BorbECmi+1uewZ3NNG1xU0t+6UxeSlcgt4ollfhgaE0jpIwiExJpQGAB2eCDmewfCFefjFsScAxzG3Mag+ES8FmHBAYEvOUzlQGRLf6KJD79N01whj6FauCXa2q6/kiMkWuT1BJ38cuwHXATTO93N6ixlKuMdmf9IZi5J6ASjBJUjG4jwmjH4mhi2Stom5kW5XO0MNXwTghKtBjOyPdYAq4Vuys12ysn5pTr3TcKu6tqRnJVlz5qLfcpDnZTMdECAaRmcNtyAwnELjIXNXo4wZx4ifetKC8ch2RFp6dTfrgR/b68XjQ3WcbXcGxS1XZJMGtN5ghotajjbkCueExFdvigdNqWh63+dGgizBwRz1QHDNSPbCLMwsWCkAsElYswEI/rkSDCFEjTK5ojcAuxSCNLh2MoJ1Et/p6lFwbCkP7L+3OABUTj1VKadjD3pgODuA70iBtDWAGIcU40Q18764a7Guw+fRhAFhzA4+egjXkuqulgsfQRfUlUQWAqB2XGE6lgvshXHrBkbCpIZ+YoHBRj3pysasebfQVcxgmBpKofBPuLFskaW/oDa4ARoZh7HrZXVdLG/Zu6tlLHTA0RnuR3vVGg94aawjBG4y1mhqiketb6+M0ONl3cAjFI/FoBqfDwuqRsFTdOhAwrPd72xGMHKxjvzIQsyb97V4f1NTqNCq4D19tgjexXsM9Qtk1feKaX/JEBD2ERRgfShwBh3zqIHXDeAfHALEgDAYU8sYxll5y39MThVxVdbhpSqMeErzDKtTNwy5bdolKhXpMP/ZUxEWxppDIXQ0yYbDgviPFs4wcUktIfFfK1yrnAENaFNdqUNGN+nEw2ppqiw6oCcTfL3EiHA1b4x5OR3rADwAHVQySPm9EXXn5BPNWGRMUYh5ILyGBx9VKFCNAHbOVrCCzpV0T4HdLzOYcfukLErm6XFPm5D4vkbzrD3cQp9OxW/GCWZ1EalGjcyxxw9uSBjLcDP3OBK03obThrrSBg76s4V1JA+1DGfruBJ3jBzugYgPtv5Pb5b0uLC9Gelf+vjznU+W0K578FAsYClgFZgz5/o2M0yoCNBxAp/tt8mnupAehircb8vuJ3NhrZoJ7uxR3gBpj5+3oFwClD+SPB88ATToNqRZWDGLhX8x3b2NUpcpnKnS64HLafIdEiA1zpHgawaJ6kkX3En0GmreQlyZYevh1Ujw9qyqTxaFdHyjAap7jtyM/glXf+inN307OLJA5ra6vJHVm5i9p71bMK2/xVYjfQoYQKUrdL+q10wl/LZkSTK2LTfYuKX88j8LR424p/1GqBI81T/yfstFIk5VoC2ZhyBfQPpOhob8Ya1q+cB5t4tp7e7iLWiyeZ8gXIRRHXsycROXZBpRK+9IHODGkI5xLE1jJz4EL6m5PuuMd8kLw4svisgMo1fFEik1uf5fF5QdxquvaFKvLRPIw/8bgg8R9zoFWD4RpSxtmzC8JPkTc9yyk6twivAWXKi4T90tg1dSmai59cYW4/zxGdVsfYCPSeZct8ZCspppvIwk14WyRZHtoAqumn2dyMD7cr4iHJRXV9hTqyud/XFQjQBgN6xS8Ix9K8e0vzbViy7l9Ousiksl6PAsGm3ap9LEKImIZ/jvf69n5Xsqpk2jyXZ6T7wJvQAlFoJ+bRwcDGGXUuzWajND0vHxTU1/Rq9cDnoaLqLMbtbrFAO7r7FZkSlQcMMSdVa7Zouv7MVJ2OZyXRCYT3GZh24GjSIhv4Y6He6br7HOS5NaKo0mdDwFJyyLuLaajbcSMPXfohvrmPRZ78k9S/NbWXMMXZJq0E58wcIfAIxFPxE2MGzX5PINGK/d7/WycVzMuhNdBqpBQjxWvoax+rdvD5XGINojz7bljyIIGlY08FrmF07wmFxWk0I/L0t1LGlQNj8eTac5gOa2oxifEWMWI5FaoVKgn4eiW5sKR6dQV1fjkHnSOkwpEPBTL8kiuqjqYuzihgbcLqFSoCoFO7KpzHtoumkOoTtWNdKdyFfeYyMVnIVXnVazFfEx/Sb6uutRi3i91unpZXJWvqy5NhWL3IO4l7pmrqg63KAxMTtxH3CutqEZf1fm16fuJe2c11RxsYR/OtucHZVXVfqt6QKGox4PzCNXn5yKOGGIEL/LhGlYtnUwwlj5sHj+AUh23aNzVaLQbTRG4fVbK6/II1WdbjZwgqdf18yjVb4fyuAhWYYijcT3agg/KpA4Rv0zmO/gk6AM9Xp71KI+m09HuOai84mCfcxF6ZdYpa+nTVjOGeWO/gZX9+sE+4QhhAlqzLq+StNEhWsMqjOFRMWuIn9fWq+UsPjvD8BxjY0ShEeZX4+ADuDdrnOI2Rb9Fo2mKKfKtGslzSrFv01goF4EmDJ0WyTs0EkMpo8W036lxaqgUfZdG01Ap8l0ayUOl2Ls1NmD9KnQ8L5R3GzvYD9TWmspkKq4WV58Lr0zDi+ltXnIr4skCG4quqMancZ3mRR55WZzO11WXAaO8bg8bDXXZzddVFwwI1NzLzxVxOyNPzNRrzFWxz3XVWsbdMldrKduaIAb4M9UEp8xRQdbwJdWAgx2yMTXx56qqtnbUv6zq3gQJr8l+0L+DnqqJv5tD8/h0jozB0ndUU55x1VQW/1437fQHPf3o6mRELwt+V7VotliFwP6HOawyAqD/XqGZDNMPosEWhPM9hU92RzwiTogX4+AGpB/twd6iW0n1t0PpLzGgTp0qplMpR7AvpOWhsrYB5VjShhdlDWUQ2868DhzRi2VGio+R75XitTlciKeQgn5dDlXJstGvl1E3fdnVR5Sd9fKw60aTPdytIitB0chvIebltAAauX9dfCSHohfCV8RvZ7zq1POHpfiohOkmmdsQTaIpfjc3VNjfjUYzkvnH8z0bXVTwjz3E70lUkpbcDD4hexHscch17HIQ9KBLqcxP5gYIdkazQS+Ayqcm3yDTkv/TjFUnIx2LDxryW1kTqwIS4qyD+Kgh/odUKSYKI3EGkZ/X9bk81Fel/KtENnSYBA3xdSl+kOFsnBGB+a8Zpo6Z8lFSfFuKH2Z4fhobIXbF/5Zh8bzC/SjDWVh2UBazGotvSPm/sjYKdNK8z7ek+N8SR74Dn1weFv9FYVvQvF6Ey+K/Q8J8kjzHvdpbpPgJp2EO3My9SYp/wNi9CInUzdN1bAszSsS9yRDPNQYI4GBce/3oDPf9tCFeZfCwOkhDtCfF65LUlIVJwVXGqf9+PWI13Ml7UPMGlgMGEu+hZbY7ZnKfMsRvGmc4UxTs4+zcC+jQLX4sxctyaEt9r7QoXq6RFTVH3MdNJ1HyOdOPpHiFbre6m4i+TRCMIU14AfFK3eIMx7Npmlx9pSHeqBtoB5z2x1gVb9KY2gjmqXT8QyRYcLm2zvgAbvE0SRbT+w3dtxFNuz2a0KsMHC0Vzt4jSYBn+asa42FHhVfdb0TDmXJ0bzDkryEJC4PGIcIeznarpPx4ii1S/E+1iNBQAeWk4W2GeDZOqPCYkMchBtQm8MQufzU0hLbB2NGspprLJH7ljewhcU/r9NhZSNXZijhRk2hT3zdceDZWdbdjWL0D253wPTHM8Ip5jOpW3+1jPvU+CnS5EoWuqebGlEwbK/s0VjA63CNfV13cDWhp7ju7B4gHHMSpriehPCgqvx9jn37g2VjV/RRSjT0kxvjDNIwnHiEecQClOj5VCSHAUQq4GJ5LPnIepfrBjHG8ZiXEOD+Im8Wj5jGq2wYWBrwppbli8WkpH52rqx6b6g0AsgEEZeKarKrae5QTxTmDL95HSUW1jbdo8TdwpMCBl/ULNcZnIVVnLCXma1SFfqSgg1xSVR321DzL0IiymeR59D5DA8MXfEbKF0hIle2WLARtd8qYt6Xsi4VQvBkOhwLPYHc0muJalhT+Ft0PZ8kYqe3bkM1SI4YkuBh3VwSA4Pt0RygROtzkXCrkLdq4Ct3McOAeRD4kcQ+HbBmFAJNoWOmTQ6IL1A9rKqk3+KLERWFX3518SYo/SHxpkCbF6qydNuIDmkYJGhviWeQGUGWv/Akp/pBTU4MDl7EfkZCNbqDdZwrCSQdw+UdJWyZdh6SImVCHj0ocPc7qYWZXnh+X4o+5AwyHE/gnxV+wLLrYqCbBbExy1CllCm9N7EisAHLfX1fRkAWaGBJyI33UxF9nBGJN4acQ+IY8He2Hk/72NiT7cQMXFHsjhBM2eUBvZ4IEEuT9t5I4JYdMBlqOtkYThB3ISdAET8r/qFORdew4MYJJ+Z/kFOquI2QmySPoF/8ZCgGjOy7Sl1jDYBS72wg+EwkXwGDkl7FhxVMdP8Oknm9EuxtRjwl80hB3Gkif7DSiXl+93fQTQ7zUgFFAz6RlsKct6cc4Ixlxf3c8QPCcvL3gdYfRgKb7BmNnusvpsucXxHsNymr48EHiBQXxPqO7iUlyTqLe3YgGmPj7jT3qAgwP+isFRC0JxoIfmu1iPhRBjZGqFB8y2lBhtmPiXhQ+Y4wqRpa7xHt9RB/J4GYK5y9afIUGYU1lKrhqU9fWwjNbgY0St2Kr9FUt4TsJUt/P5DY5Y2EL2lWHbDp1wyhI0Rki/9Zgd0JXRbp3gNWK6znggtwjClvqx656TNUX1LgVvbLmdnBcLZHoEBrS3Qmsj+0RoNGY0eYMGUS4+xsLA/eY00kf/uYfwed8o42WfZCCRUL22T1kW0ucdIBuORo/AY0DrTaaiAhFS9V+NOiBCZDK+pAWcfOWSxQjfyyM0twDvWgLMzkpjDtGuxv9qKrfo2t2sUXjbnMz/3gzffA5hijmrz1L1rn7iWLbCZxynbQp6Cqbf/0CsKRXF3B9XcE1ccA/ONIBG1C506zZvhN26CYc14+nYBPcUJgbIct4QwDJFDB5kuPzjQOzrtCsl9Tl3FDNC/EMvFp30E6eKEC3WSJyRRSR1s4ed+jZ0pR85AsMsZCf+eJ4QpcqWJtMKxYvMsTS3PCMxxKhGEDBWCPkNlQFWWS+OlS1kwcmGtKY9JILf8XBIkQhk1dMIC5c0TYtu0PvfQAx/7R3gDcYL8xpuK2rK1L2td+gl6A09k5DGk4OPU8ENKbE00sNQQ4VovoZnUPqCW24DQ+X4PyxtQC/If2Cj/rZG6mWGnth3HyrT2z1l7OC379BKWnaHbsCs1C3z4YZhqZVsyuwEHShT4ODjvrxImouBGHLWkObGbby+KIabD6+FoV1n0UnQr/VtMzQBij5F1TqDt/cazeUxs/zLxEouI1NBpbDKB1JN5WpFda5RupAXJfG1Uo0i6alX8ISgU0/GaN+QyfTL/3EgRZHgZGdwK7blupWVE4TUAmskqS058oPhmwCIprRhDYkmDZu0xUA1qewSHglgHqK+eeISSybsUbp2eSf6aMHT+M1WD/9TaZZVNRjHLdkKeahkXhnHFqxckKVi8caWERCcgtIrJaDxzpxLDzl2YHlO/xRlLA8UpDU3woZVkBvmhROmG0z7VOshQ1aIqUTActzYRVard1CqEXvVFhj5NIqvYGxHDD6ULDu8CsYK2sufQkI6LDfCghzpGzyV29HHXLuiBLt3LEHvqtO1iSTxgqMImk0sLJjhCBwfiZiLxnQVr2KSAgrQwmSF4ZLSTzoYqyREIPyXrQojRDOoY4YgQgLozgACMMCtY3ZAH6HZX43vFwfQQGCHxJuPdrDPl4S/D5xc4aAYoJaUVEaqu2AKCFfT0+/B6v3HE8bvST87Q6wGyJuEIV5FM0ZK/X98P/ljBlRdP2K7fMiE61mVpFOEx4+BGQ03U5dfetWqCdscBzAkhf6maSPTKkkGKMyxwgQdf7iS+DSBX/lfLPmE86poX64AF2EfTKFsxcaqWcSwhrFPnl6CXHg4Q9DxKohFh8x5Px7PunzNvc1FvoZnRBoZKQg4RQ1l3qC4tKGXOapAH8aZgFq8RzxaQnnBp2CynJcCykvJpMUxgVZN9qLYTyYVIYL0VV4wsgweS7mEnjFrE82YI6LcybC6CVAShKhncnU6Z26BKPSeksU0yEcOscxY/ns48qhbEBsMMgl5bKIK4rfKjI91I5brcMw+klXdUjPaUdw2IeHa+v4iEVydB7XpgUonlcQx3ZzseoPcBmWChjLGWfzJHlnFIbaK+JYmXtjIXvXCu5fa7SC/NQmLL60Zp9KXiDCUllrwrl3+Gt2t17nF1jlybJ7soP9ErDhBdejKMBVhVat4/E3wcW1zE44hiQHGouShIoZq8f6GOy3BqbVDadhqC8W+P0kTN6w4STUqcM4rJviyWaLIWPanyLcBvvT5PMZ1VA8w5l12MBOks5biIhQiIHQvpj2d3bhyWvdmN43XNqCSmECedzyeDLawymCjrmHkLzAJorrfagO9RXMJyfPwxC7TsZhFlC/0wMW5zdSRaDDcUIZdcwUFpKmAo2lGbMtk/mQx01GLcyPUjwn66VzsL4w33Ndi+Tg3BMBLbXBDp1M4V82u8O9bkyHv+RW6ikIIXD4H2i2YdEG1ysRWTwfZNRDq0pvRf55JCKlDiQPE1K1M9H6aLPL87lNGDl0AMfF5kxfsTzlIEVrgGyhkAZqOBGM2bbxfMAryEtsWfJJA/11TiJdWkYI7cHssNGrRS0kv2IPSI8gd0bTeDya6qoRI1LUcLI+0oeV3kojVdO9fhYBaFQtTifzqrqtqB8rY2GPEfhOnR5loEqQdQy3irMd9j/I0tiAew02ccqjCA7D6dFj8UUEw2HqfNI9Biuz6vrrehn7Ng4zfGKVIV2tYjP18PQGzlHJ64GLI3hJHuxL2HqH0Zm0guu6AzxWiMcCoGQ2wGAu/bimejrDZnTmwBQwqV7K3JfpjJIE5Zxgp2wGUV10MvQ0fXexFFONR5EHh03YC+bogLs4oZNDF/k9R/E1AyKeE4DHeFGgr9IdhNgsNrPs+gpEvNtoOKGqGPOPrkX7nAyEtx0zFVCn25RtCIDukuGqdqOYHAQqhYBmgsMxveSFNRLPsScH3XiaaEhRF1+BBs5GByCDm+qvI/7Jky/CRmD5Kf3CxrzSErtxEFrdjrVkxNw/XSmFZGrqRUqYxdlDE0fnYDRIOdJENROx+CZCkzkmeQEjbZ25AiQ4EmpVkqUiCaNZwEOpvHDDY8hFtOGoo95zxllPOWQIHN4JjidUdaNNsUl2IkIehPd35DCRQMAqwyMtOGoQo4GMy2NQBC8QEzxM2hkcGHoLRaZB3T8W++Q8VZRQIo/InvMzMOldjB+JzxpiMU7cGXJyS6MNDLQH/sWiXO5F8NZRU9E8hAWBNcLuLRafM+SKEl3i0mLxeYM+Bpx3QLH4giGPYKgJuF0RR1kXSZ+aWg1YGMfm8N45nBAePykQiukuCfkKSQx+5cIxapkxxOJbhrxoMyf9bxvi4r05OX/HEJfAda9PcPSC7C6lD3SriJ4CaBHGIcVluXWZrO9YfNWQlweQBA4i3fHOLbOI80axjmWa2qv3ojGWCYyWEPrRdGRDbgwgaD7YaHOGIi3egvxIzRedlO7UlhvCJnG/ghtkA/bndSFRUricAu9Hu12kYIbbjRh0DIgOez/wXC1MAZHwF0URA5XpdJS6bE1RzhkUNIy28mTU7W1CK7Tw882b82x+H2uIhxD/gPU9TgiLHyDmTmRvXE3KhDeaG8iAthgoDDMZie9LWcTktLHH4rs4+rK0xDPkAuWpugNtkIvdTUq8iqJYiimfGaRZguWkHtKwjxeHkrqFxDHYY/QTxQq/AA8WSuIwg1oXiG+5inwnOUwQPKoG9rr7A0gFiGPxnAVQUvHvDXlBbiKpsr9niAu3QKmtkhqY70VM3YEWYTJY4fvubBr3e5E93BxgMSH8JrcC7V7MHT2IEE7gpLikH1s4MsBUB/BGg9awNwqQHT8tfmTIyxjlRznU5RuJCmPxQ0NegfWrXEUQPX0Wwaz1yXZRXMnjlLEzb+4E/G5/FQyrqV/FbXb2Bv/3pLjHeIScO7LnJtsAjtni6kp/a8vamVFsvJITA9yIVDvNAh2I+VOSJpqhZ3gpDpx4bkUFawWWVM2J2QFA8pj0wiZRj01+9QtCCncgDkJhiEWEHH2SJ5Rb68NlTDZ39jGEXBqfjVs+V2eKcehj2UPjc+NXaH6J/o2FIaaQzBAk1XqGhWKKWgyx+DG2EqqWaTjqVdwgyOMBmvMESuNzYRf85PKCJS+k/hm0SgcF/8iiSHtUyNYMY5fgmoqs5SRp5Mf/CSs1OZ1Rb0Yi84BsqG02QUtU664ZoqQvphz+MSfDrDv809qF5Ek/ikcDJPIzCoWfTSF50ByqbA38yU9J3q4IYwvy1TXEH0g+dGPxNoRCCREaFZHCHvfA4VL2gGA2noX0/OQgb88piAKlsujmRtT1N0PC9JHnrNuAJP1Kq0oZGk2zjaJg6s8TizX6lYxS7Tj+LtSuw9/F2vX4u1SjX8ZYrt2Iv4dqSeZ1pWabSLAAOlx1XfXt5BGzUvHVrxoepT7HaoS9wPOJ/IX8m963tNAXtYs4IX1xi/5e0rCbLZSX1umngi6rEO7ySoi/V1Qooruy6qy2mMZVgCzT0xO4R0Mlf66uOG0U96SLgXvZ9C3UvaEMl5Vxn6Bh8jdx9yWu7ofsDdG5/y3484BKlZ5+oFkuE5sP0unBB/s08kN8msBD9XXDw+iXH1E+nH6cHOUj2vxrTI8M1E+SP2pN/UiU+p2vawIW0LU0meOEuI4md73+RaQbyvyDSDeWK6SZmwKPzehmZuEx61w81nOsUE34cYHb8vm3Hx/vNGg+T8C5gWb4xLpZ5h/ofZLT9PiXJ59cboUhy8VUOV5AZeJfJ8As1wsT5VUAKxnalBs3fZtmWXVboaK1ikzBqtZkrYE+xBb9Hm+9or4GPlG3V1UufY1+W9Onq0HhJ+aWciKRZLfWkI8AbNDnhvrn1QvIl5IwiqR5qIRmVErg3DMLCc43Kw6RXkwZX0pYLLMqlpMeh5DSRSpEYVcC2/StmiJ2OJ8ip9+rV+Z7NPCcZsrxMZUqAXRBaJLyLkQBHbGsLyJhKWIXh75tE2eAL8Hxo+wq/KU0S5SXkdQV6nKaBMorqFR8XcncJtq4CkNQd4D3ILIor6ZSk7qn6VHeMfnc+l7ZYr733JK6T7Yy7qvlfD/k/FsNXInppXr/Cv0wGM5Q3OsBFdiJhh9Ycehn6V3+8dsHVbL/18CD7YZXg4sgU3hI1eYj1kOxDJV9PgxWgPs2+im2hyfTeQQNp1zhI5XRPgrXTDa45pEerad6DZVagtfCx5PMjye2dl1TJbCub6q53UCa45Q8KjfCoeQ/QL/J599FvxlFwsNjABMbTOyxQeINHocVCvtQKf/HY53i3J1Un0BaoLGeCBaIqSfpRf/kEN5e6Q3G4+Jih0Yol036lXZAFtTv1W2Sl/rt4Arl41BzmlWySFsv2ap2V6vwu/QJtmK+5turCnKUsQI6YSKVRzyt1V1iuw7fcUuLDaOhbqUAgX6Dx3e5d8UxVWcvhW4JsMfGCP//32PSOwvnY9J/jjFpMCaNN1MBiPMflp7/sFSh707QOX5w7ajYQPu/pA9L4b7Of1iquPxaMiWYWheHpLvOf1iqPgnNvgs5/2FpvhV78/kPSxnnIQzgvuc/LOWLxPMfli6e/7BUddyicZPvQ8Vnz39Yitasy6tw33X+w1KksvNCOf9hKRrUux7nPyxNrjsDukRMG16UNZRBbDvzOnBEL5YZKT5Gvvf8h6X0roz4ZG6Ac75Pd/7D0u75D0vF+Q9LsSGe/7B06EKMbL/nPyw9/2HpJudSIe/zH5aiAwyH8+3nPywlk/pn+WHp/wFGIAAAtZl5dFRFvsfv7U6aJQRBgYTVgMsoSoIIETHpsCUOOiIw4zJqoygBQQgKHbcRRCCJkIgOIyoqDiYKcd8VO4sYRETGJUEUUBAZZTqCMuM8fPMQ9X2+dW83hee9c+b98Tgn1C/1/dVvr19V3bhuwAk6HV5+feeOtPRKZ9zFla7TseOvb7gsd3LhtRecf+v55w8585Ybpv/6xpHX3+wc53Rx3K5OTzclxXWcgJPipo6edU3pzOKSqBNy297uOE47p5NzrOO4jpHr9HVSAqnjJk0tzjrjCEcHDfwzg9iPEzVo3v59+xI/mjjGvUmCAkZQPwkaUxItnl0yaUbWhSUzbskaNankxklznJDzfxe71JWBG0ZJtIuN6anjZs+aXnxNNOuCWZOLZwzLmlw855rZ066PTptVInra1JLi2VdeM6u0JJpVXDJ1Wklx8tdpsql4TrR48pWTrr9+xrRrJpVE5wzLunzS7NmTbsmaNSWrdE7x7DGj98xfMSeSNesm5GTNKS6+blrJ1GFZV8+aNaN4UklWdNrMYsTNnDktqlhmRYsnzbxyZvHMq4tn/6+iotOiM4qzokg4ikUTY0bPiThdF+JrFgk4BafnO6eOkZ3OBcWTp5XOdJz+7tEOt8fJhMOiLYfbH+1w+2kS9G863N443P6XDrf/hcPt/w2HWYPD7eXfUSyaMA6nVDhOET9tU9NcZ2FRRu9AWbfW54LXZkaiKcRifpsFjrM71Qkd47j6ddFjlWMDZU0bxgcXBpz5FscxoZ4eR1lLYRtktPsguOhojp6h/kmOqXDc8mGwjFhbHP1DZyc5NgYqXl41QBzzLY6zQ5M9jvJ49XGBRbmNNwXLfvr5c4tjcmh6kmNUoOyxVYeD5UdrmR76Q5JjTqC85MUO4hhncfwhVEmh63dYagIVubscscy3WCrd0DNHeLYEFk4/vFk8z1s8z7ihl3yeimizGygfN+Bi8ey2eF5yQ39xHX7YsSb8QUeoQ8TntRSe67huYEHurhE24obmTowuZiMGFkyv/95GAqF5mZHBjhsMLBz33jIbCYZuu7H5R8dNwdD6D2wkJTRvYOx0x00NLGpafoaNpArp57ihwKJx791sI6HQ3IGx2xy3TWDRrpQ1NtImNLelkFJpG1g0/baNNtI2NO/r6s2yuuzwLb1spJ1vdTvq6qKRNtJeyHBZXbbkhWk2kibbsLp9oGzcXUttpIPvaRoVtmmljaSH5kab+zpuh8AdjvMPFbKPhOYVZWBzuwC/mAL356nphP5FS1/raCOdfP3pgUU9Zl1qI5215lgTz9rVD9nIsVpDPF3qdtceGznOz2jHQNme89rZSBffm2MCZbXlmTbSNTTPcfKUnbKSCQU20s3PDtJySy62kQxfmnLwRLGNZMpqctCJHJRV2kj30Lxo8xmJqLEx2/jIUVGz5tnnyEpGzUZ6KQLJqNlIb60hah1N1Gykj29zZ6LWJ2Yjx/sRwOY9O4I2kuXbTN3UTjnVRvr6FrhEbeRYG+nn5+BYotZnio2cEJpbH/9YGS07vH2BjZwoaWSUeDaVrraRk+QP8TyOyh3/Fxs5WchAY/W4Z+x4pv7KtzoUKK96OM1GTvEzmszBVB/xc8Cu9nKQmKeTYhl+dlIO2tnIab4W4tnjg9/ZyOl+PJWDKdU2MsDPAdJyd62zkWxfGpHecyjVRnJ8C0BqP+5vIwN9RDl48UIbOcPKwdKpNjLIysGYRTZypqT5OfhqjY0MVqT9HLz5no0MEeLnoPc/bSTX90c5+F0HGznrlznY6CN+DjomcpCY56xKRG1hjwP1NjIsqWVRj7tPtZFzfC3sndrQJTaSJz9N1Dj1VtlIvh811jQdlJ9JJOyvSVcOVFFJpEARYL+pe8weYCPDkxaU5WaPtpERvjT69OF202xkpKSx48lb0/JlNjLKz1sXcjD+ORsZHZo3MXqC6Wzj0rfYSKFfhyDdtv+XjRT5SHtO7QmdbORcP9YdA+UT/p5hI7/2kdRAee7S421kjPyhcroEyjOvOMNGzvNt6xQoP3z2KBs5P5m58t0/X2Qjv/Hjlh4obyqcZCMXKDrEOi1Qvvq42TYy1j+R2gTKl2y61UYu9M/RroHyGX9bYCPjQnNj8QXG6nGPL7WR8b7VXDQGLzyqQib4FQLS7YanbeS3PoK0Q7lrbeR3vrRugfJd0U02cpGy0M9YvW7YpzZysW91IFD+2KV/tZFLFAP2Ykag/M6i723k0tDcG5tvkTRds2zk97604wIVJ3+TYiOXSRr7Nz1QkTm6o41cLoRYpwQq2j/VzUauULapXjdQcfiLo+og4scgM1Dx7baTbGRiaK6jt1v3QMXuH061kSsVnRsct0eg4sPLhtjIVaHbHOcBY1vTgLNsZJJvW09utvcW2MjVfk693lLO1dZH/N4SML3FmueWi6zBjtuL/n5/OxspFrJatUt/v8FGpvi1S5+o3VtvI1OTsSnrcWHQRq71Y5O0bJSP+JalJyxLzHO7Rj9eomXpWZKVRK7ztYD0OPAbG5nhI72xbPV9NjIzNC8W76V9vSh33mc2UuLva/xsOnjIRmb5fnam64VOsJHrVbl52ollJS1jbOSG5E4syw1fbiOz/SrsQ9e75TobmSNP6Xo6ebYus5GoELIDsuSFtTZS6iPm3rrLRm70/aHvdtv0jY3c5EeHPVoyoZ2N3KwqZI/SpyYM7Gkjt/gxSOZtjo/4eQsl8paY583j9S/OsR6zFOkkcptv2fHk7bkONjJX3rwlm7kx3GYj83ybjyVvfd62kdv9E4H7cdPyn21kvqtF/UzYaqcocUnoDiATt+PJ3MgxNrTAQBgBlNvnDhtamIC4CR/+L+UhCS1yfac4AJuGvGNDZbyvTCQQuGT85zZUnhCYEiivvS/NhiqAjMfkoiqljw3dCWSSwaFR8u5AG1qc0JXMU40P/TJPiXk9PL0lXPp6HNhhQ1UoMjZ0IVM5Z9nQXUCmVEhi7ep5NrQUyDilXE381obuRpdJFqHYs6ObDd2TWEW91r461ob+CGTMYFXJsjk2tAzIrGI35ZY8ZUN/MhDbCYGHN7XY0L1ARiD9qenx/7Sh5VhoGhTH7lvr2tjQfawynYhzt3Zppg3dzyp/u5dXje5rQw8Amf3OyVty9ak2tALItGk24oSsITb0ILpMeDlhc38qsqGHWGUsBMrcP8GGHk5ACDz8wkQbWpkQyPG7+8AsG3oEyPHP36ZX7rChPyPQGM8BvHrLYhtaxSqzgziBl7z5sA09yir/CC6fcVatDVUDGYHHcdu46HkbqjECzSFcPji43oYeMxCRZ5t0a95iQ48D+aksPxTea0Or0WWikcmN4/TvbGgNkH8Ql6+bfciGahGYOIknPNDWhp5gjyeO4tHXtbehJ1llLOQszm051oaeQpfJcnJLbvGhX27JxLy+83hbMtk7k9Cz2OD3Gb95JqHnEqvasyWn5NnQ84lVNNbcXZfZ0AtYbgLomafvSj50lHnWvD4xeYq4RtAxbOhlpJmqCGBeztk29EoCknl7F9nQqwnzeMfnTqyxodfMKgKbpva+14bWYoa/6egYKTb0OpAps650jO+62FAMyKSDF0Ruyek2VIcus0doC4dPHWdD9awytQTUlHqtDTUkIAQu+ePtNtSYENiN0zm92obeAHK8TVfWbcUGG1qHQGM8x9auj7ba0JusMjHM4EPk8z/YUBOrEpsud2w7G1oPZARyXmTO6GxDbwH5qSw/vKmXDW1I6ALa/VqODb2dgHg3NT0+0oY2JlLJpls96jwbegddiU23ZPEEG9qEQLPp2Pszzp1mQ+8CmQLoScfoeqsNbUagUtm2XTvXHaPP4cnv6oHbo81Dgl0+Wrhn47+Cp08Z+uG53eb9sG9V8JjQmBQnNd7Gae+OnRWdlfXbSSVzsn57y8yr+Zo9yJlQPLV0xqTZjtMhTV9P0ePI/cD/D5HudrzdxY/b3fmue4frLOBzuesscp0y1yl3nQrXudN1FrvO4+7tD63oHnjXdTa7wfdc533X+Ry+gHN/wA25bRJ/dknjm7v57u79/UV/QzJ/gql054fSzd9heujX3oE+zvHOyS4O/mHPF18kfgQF9R9/S3KdXzn3u04vp6Pb/Q6met78wuxrT3JOd7LdsgB9IevPAcdtra7JB3MCIqqyhxVAPBMWESzK2G6I1uqD4ZbCQZpoV5AZ6V9Qld2JyV4FwZbCjAL+AlSgsbT5h7CZmBjdHi7K6ATQGA7iUUFOrJr1B8M5sWXhYE5sW5hkhyPRZ8wYyIyceISoqXxRRK0hgqXN6w1RF/8o7Dj1krY33Fq9gV++xbKPNfE9Yvcy8X3YGCAiEm2L8m/h7FTAxF6QTIz4CKB3QbC1ej3m9cOBNWYMVGWPPEIQCS8UjI7zV9dxq7KXmV+Al+W3VqeJbxCyfaIu/nWYYA41BP6fiz0OwZiJgW0KgpmRJUykF8Ti1WbEnlpD1MWfxTcz8Wo4M5KOxTHMSC9AWIy1exWqV5n5G+izTMTl3OrwxGgrylea0UgXUVN5IxH+QksuhdjOz7kY9K5COAR19YRgCFxPhgMi8MZzh9FxngnKyQdRM7ge/mJDtBSexpoNecGJ0S/y6+Kz83NiqxgP5WPEcOokjJDh+dJvJkqbX0HNKiZIirfke4w4jZCnFBihkWg6dfOgGYOR6JuGyIntYoTDcQ5j7/e4G6LCkFGV3ZEgvoLfHZlAiwipFYdvh5bIsF2epRIq06VFI70r8iBmrsrHgJcMUVP5Frxb88nTVohUTNxJWAbJ5q/45Uqi+RUT6BPRUvg4PzuJd51SuxVrWkAl43OF9iXYv0HXg2Yk+PMN0Vp9pcche7WktHkAk8gobe6NwMeZ6I0ctIiQWnEYO7REhnkysFRCZbq0aHR2sGmVO1OBymaSiEQ7NyBxCJlY2xCJ9mVbBRoJSzrIqY2t1ZvzI9H8RlTcmj8xOr6xpfD+czSyIypjIohinUY4htWLAKgvyhjfyIaopCL+JumFhsBEMxKV++tEUEeORtb2yBdRUzkxv7S5QRPL8osyljdorKns2GAKTzY7bmnzj/lV2X3VWDYYIjPyMJVzUgFeX0ti+1Mg1+L5Gd5EUcZQw1HanOctaa0eQZH8aEYs6RkW0VKYEzYcrdWjqJahbPRR5AgZIiRUHEaLlkitZGh0vmYrxOIPw85W4BuvIVqrTyPy6/KwYTcelOSbNDj/UgkOx8o8UO2Axd5WyIm9zMQqQrxVJbEbyd+jpX+4pZBCz4xMJhvpBUUZK8wIx/OGqIu/TQW0k2MquFRc/5aJQ2ECqH7SyvpUln2gXd++oKbyZYzTuFQNU8SN4UBdfAcW+oTjPBYOTIx+jjWPqZ4/R8/rBOBjJt6Vre/zyw5Ma0TSl+FgTeWzIN/CtcKMTCwwRF38ajj3hDFtBKZ9glnZjBtkSS9i/RLre1Fsj8iSXgic5yFV2UWsHwjSR+pG48EBcjWVJRvyyUYZ6VlJTa40Y7Au/rQhWqtfR8Oz+ch4G73rmPgADV+KYxsCU1i/E+F9wtRlW9KbJlNTKY16SuQHOK7PJ3n72IvNeS2FW5ARP4dtUIeQwfWJ9DqPketEq4D9GkPkxE7Bs815uLqTxN1KNB+hnH9O5Ho40odTkUvk0HBq1co1f7Vlyf+Q69ZqP9eKv4jMiNoIp4OszIm5JO8Q6gk5tyHKcztcIXLdoJNlG0FpCBMuOfIh6t4iIbvk8ssg3yDoQTOyNxcaYmK0mJHDQPWurpUTG8j4hjh6I/kJ4tcbLyu9iarsy9A9kMkBYSI8Eg6XJZMBWvIxeSETjxIHte5HFYcnDVFT+Sq2rFWk1yP9AzbAZpbQmGsqP8KoY0G3IWdgOCBnRLBWFXyQgCpL9OWayv3o7craLZg9Pg9hXpYSiXEq6HZ18dWYS5PziH06xL7Ks4gkpKaizBVlDCgItBReThx8wnFOVAu/HKkpWDWZn3g+W6sEZzbBPxc7GjRRTnRfZOJuMxLD5YaQ/7isgPwZN2NkuhpZ9flk6Gk0V56D9DUgw4ZRMhrriO5yDNhZlxO7U+rqcHcKhjj1kegIjXlUSC+IdXmRaCr6i/NN2XHsoX8nGyM9HBAhJxzXeYjLiG4myNbV4zIp0W3tryw9SZUS9wjaGyclUGZk/BECfbrY5B4hcmIhxW2wR+g4xY1hQB8kiFEIBFKLSxKs1nLvgmQIqXD2s5uKMu4iRtn1+HmxIXQGUby6RGyHbTqerMS9g9rJI9nW5xDakUxSiSIyI2vRs5JYb9PEDvbbv5DTjwbCbmqtvoRcpRdEoneZkUysMURL4WtooXPy4Zz1KXj4IbH5STJUgd8xuRO7v1Y0vzhCyG5cSvNiJAKPHIK1Bx6fKG1+Jp8i22kII68qewmWf4Dcoarft5mI5VEZcGw4h4nVWJzNqemFQkFZQThrxPu8IehomLtVuW5mIkjhb0eh2R57KKkr+GUPAEERkROr5ZftSGtUATfD8RHr32Ritzx8Ho79TKwwI1rmGyIzchVy4GitLmB7biHS2Yw0kprKPhBrWN8HwWgRoTsIdcMkdxA6G96kIucqJj/JD8bi82GtIVOeL06Ozu4huE7gRBCuIxdKQyQhEc5GdnFOrBNm7tS2+ApJO+vq4jEa6NV56LuHnHdk8T2EdqF6zD30iDdAY7TW1nyzpCq7PRZ1QmB72ZxtCJ0qhmNi9PfY+gbsv8dEZIhoKTwLOReyLK7rYSHI+XlFGcaoczh5TzQGSahGz8TS5o3qi19RpxsJWgzLWhQSWaQqugdDiLMIHTbiKG0O6I4rE9uymWRi2wLfRL1ERiMUDlmkJRqNDI/Yg5kXwrE97JvYDNcQbP6Lrg8ngmzkF88w5xPTAyqYaKtquMYQdfEwcvooKj2wcDCTKRTApZrYRb3dRlp3sbvu9Sb0DBBHTSUvKi3Jib1vZKgQjVAOW+yoMCOOrTREafNzHofjNJklstDI8K4ET7LkEzjRIkJqxWHs0BIZJhnGUgmV6dKi0TlE/6Az4PqWcEBX7MzIuwrIm6zRwRdj4jPdhV7G1C/5qWXia6laCccBOKrMiP3XGSIz8hvM/UoyBhDhT2kVA5C+2ZugK2HISMx+WZvoYqx7ml8W8LNat6dnWf+wMrSVdX/ilzhNaL6k/4CqKxD4A0Bfb0JB1Z5TTdDSd8GeQpTfAsjOQ/qTTAyuL8pYbEY4BhuiKvs7SucrHXo3UTpLaPgjKLJjdGB2R8Pxkn4CrPthG4G5TZJ+FfofQJ2OlAd0HNUYIhJ9Cac2aGI9rN8xsR4Lu8vd9YT5TH5eZ6JQyXge6Zdgrm5CV+mOqMIslbo0WBbCujk/Fr9Pa++gbnTg34GF73gTdfHdqFzLVvunhP2dfRuk7E9BLWUvYerKVdlVZmTJ64aYGN2C4KA4viFD/+THS7fzJkWtnkHv8JqHDnLTPJIEiAcx8umFH7T1NS0fw/pygXoEu7jSF2XMJDj9uWbMxHIu/SL0ChCHeRZoid4JkqGRmPYyhHcJgiMnNhrDhuLTaAKEDBESKg6jRUukVjLMqONP5nGJaTR2GstbCs9Esk+YcyczkmcINkAhIr8DvgQJP6nUpqE9BTsXoZzTTDtJcdPrXyO1/6EhcmJfU4zmRAzwy79Yr+v/NgntDLsO0c4EoNKb0DHbUtieJ8RBvSYDZEYH8T60cDLrSkmZ1qvkNZKu5YZoKSxDjjnSpqMhlqeNbA49XetVrvJFx6JJUJJIRkCEmpVCgCkidLgplua0K22+CCSIqBsxZasukpVM6ICsNiOpqzNEJLoZDziHSps/RVEqS77ExkHqj/tBrkTofjjRIkKHmxpWi067quzPILaAbkbtbtV4nWGXFo1oqTTExGgpQuEoyriI9R/xM5qJRs907xg+k5/KsFPOcSZfS5sf1xX0F+VpCJP2SPQMFviEnnDkf6ghkHm+VpG/KLJDqtO7TXZ5+ZiRic2GkE2RKI8FfdqqqXT5lOSQ1H2KYIhkfoTAEBMvyJSQStKh3j6RdI8oynhKbn+ClE38bETIDhnwGgv3wfawGdG32BCySJdKOC4hKJ/CXsTEZumTp/Vwea47a1KV4BVoiDQS+usNoUcS3jUisDOZGtZIjyOFvRsprSdIrtNIDCnAhgasOwGBVzXAOgDinga+T4Rbq19qIG1jmdjWoOKbGP1HA8YsxPbURj0MNLJEbSW1saXwPSx8v4EN9AXbYlmDRlyvp619gbDNuqHvMgRrdNOqpQ98EM6J3azt8DZC+mLVq2zsJm2H1WEqLE/3N40E/VJDxOL98K63OvBnGH9XvvpJS2FQp4dursNZPxI5Vd5ES+HrLFsJ53ZN7KA5/TtX2Uj0NbSw+ZUmdYPMyIdhvz1sx+TvKMpduGA6yZ4jhCmy0uY0ysAn6C/6mJdGgdUS1iBlxLcgPU95iTXqQlkXL2qkLBpQGGHCy6J3XzUHie6rInRfzYn9XdFrxoWO5GN7uLX6LPX+PXBMwow9WH+XN9Fa/QQ/2wHeCCNeS/7P91UdFbqv8iQTRx9CoC/CfTwtIhxncti7rw6T2uEI7Iycq1D9T+++KtOlRaPuq46jA5otIYLjq4G3S2UsSYB4EKNjNrjOfn2soI5EEFc+mXsBFgGXw0XlY7PAEFxW8pG1xRAY9S7QOML3MhMv5OHYn9Ebr6vKlsfmNXieIYoy+lIWC1Rrf8/3qnEd5cUHEDWSquwQ7i+jos4PH+ks2oJJQp2ZXA8hIscTu4uIHc9wneg8jSj2P5mRiRpDVGW/SGRpuNjJ2v9A52bC1F2x34rNQ5GxFelTw85as8F1oaKaaipzDYFe2a1PKm8ibEdeS+HdjAvyWX8O6t7DRI29JfAcknABDixg8jrlbjUTZaj9kl65NIxRnXH+Pgw7izA9pEKPYMMqMrsArmrJeAhUH2Kfwso1qqEYxBNwNbHkGcnYhGEvMLkJs+v0uttEDOo9RB/+NVva/IU+Sz0L8i1r7zUjHDcYgtMKzj1hYj4I4mNMPhmud/Suno/tW7T2MWz/BuRrUnRYE5lYpR5chHR2reNEsUgv0j+ZkYnHDKH+EommaedvwrN2VM8OvKMV1FR+DfETtusytE/u/ozebZj8M0te1zcuTZgaU0X5hO58bP13DIEX61kdoWrWsjBN1fcsyLV5+rhGeQ9jS+h+rOR52VRe74Barip7wBDaZGhUi1uLtJ04uQ7/0rSNN2HkKfyiA2SMPjEorncqBG+ztgy7GkEXqgxfIZ/z+eUpAjUvTEddRYBvhf0+uG7WRBXRLuWXckybIxkzIGbBPoGfKZoYCruuCqew9LwwhdYdvWfz0x07enkTfO9gU5xFOBsVgIuwYzmJ8pxyfqsN3MottkcjG7gV50Zos7yABp/gs65e/VccISLRxQ0GShLJ5SKcL7mnljanY/34Rqrw63wRHBtsoAsaifCDFP2YxpbCCiYKG0lcHSHc1kD4/hMi3hCLH4u1exuIeH/8+LKBT0BoX6+JseiqZkJWnNGAzmm4H6/DrngeGdUVojO8hrgbJw4p+8s8QoeMgXJi7bwGlRlZRQaXNxDKB9C0H8FVjF0aseX2cF18UCPVwuKR8mOYcSjhmPM9XnJSexI9Yp86Tww7kkQS4qMJlfRpPnWpr0GfEoKeKvNPOfFOoe5T8JgbdGt1z3BL4TAOuBFMhHULn4odIzmnFpuREDxoCF0saiq5ltM0WTKci+xrWFogp56EOFV7ZjXBOZUjbRXR6q+JB2E9jV21zIy4fZsh9BjMjJwsjstg1TtBn80yC9hDl1FBvs2Mjs4IAgLKhwsRTAnlawf/DJGERPBXW8Xp0f+NTy1LBFvxM0O0VrsYmCPXu/K1/wSCczzOHaMJ/aHjP7BYYyxsJnQwtlYfT8QGqEt1Zf1LtB+XpYPyidYOozhhgGd7ZuQtlcUjhiCz7xiiKOMrDAiotTiI7YfYNki7UhMdmVjKREdPsQgqlIk2jAG9fPS3h84YvpeQd1cg3wXVn0weNaOJR5KQOv3l262pPBmdhEEE+1gL1U/7cnvtQSYyVRLHMNEJSQeJWFsl7S9cpBzuPPeysw6GA+wIXh00yZbCX8HSAdZioty1gL22jELrjbBl7LVTCmDVSenrE6EGUJRRAT2igA1SwfZiK7NduMn5hNnlavNJwnQCQUkiuVyE+QIrN4m3uvC38KWJryMrIVqr/0AEuuj7xXyP0H3Ohw54RFHGcZwX3QR18YjW6hyyAZQTOz9B9CPgqHCcNh6hr/g6Olje7BHa2CB6bHj2OKsxTvdo3aGBTw8XZTyqTl3gEXXx91mJdMcxfzORKX8kNffI3Ds9IrFcXlpvGcWTdmg+m3kEiAcxUnve3+eZKm2ehKRF0n8fxJN6kqR5LiR4zFNZuwTS2i40BU+8CHOvLcooNASVMxZZuvpeBctPOqJnh3U5jsXvxLd2qtIHsFvH7ItmZMlHhijKOEDiqSCx66mcGelAYW/TnbELhbYWDV3gqvQmuK6wTHV2UJfIFBI0nVI8gBaeyjxS6Ux6Gb9kRoSuMERr9WLs4ancUjgHC2O8HhSGodqCY5lYwhYshOMZPUXyjhAEwIsAI1HUe5qzWudfHobqJLgAHp7K/C0VJEh/nIcpW3XRupsJfZBdY0aa5RuG0MuGp54axG4UpWJfnB+eykUZ/wC5kvX/gBMtIvRU5oRhbJCW3RBbUKm/Mpmr+Bug+1kiLi7rOnpE6GAXNxGIYKnu9xcw0eiZzouDSc8X51GynSgUUzGm9DjjgH1C72EKZqghEDkGxx0+F91A6kLKpfchybuekNyq7LcMUZTxicfBhQyFDt1eH5UQpmeOCHx0YHOoQD2EYI3Fu9JR05k4yYykfagh+EpLYbh6do9D0D5c0mguk+NAsV5/KmH0iKrsV8OkdzCLWojHAHg/V4BOgkXvix5mZEKiFUI9HT7V9fZHjN/MUfsjQX4xzEkvAql8lzpC6GMd5bQRvz5k8euo2CV9T8Ki+N9rRgp/kSFaCmfh8F8lXvegT1FRyM97CucQ1r/BpLbv09qQv9y+zn8D(/figma)--&gt;&quot;&gt;&lt;/span&gt;&lt;span style=&quot;&quot;&gt;&lt;b&gt;Project Model:&lt;/b&gt;&lt;br&gt;&lt;ul style=&quot;&quot;&gt;&lt;li style=&quot;&quot;&gt;description&lt;/li&gt;&lt;li style=&quot;&quot;&gt;designer_count&lt;/li&gt;&lt;li style=&quot;&quot;&gt;&lt;span style=&quot;&quot;&gt;engineer_count&lt;/span&gt;&lt;/li&gt;&lt;li style=&quot;&quot;&gt;&lt;span style=&quot;&quot;&gt;interested_applicants: [array of userID’s]&lt;/span&gt;&lt;/li&gt;&lt;li style=&quot;&quot;&gt;&lt;span style=&quot;&quot;&gt;owner&lt;/span&gt;&lt;/li&gt;&lt;li style=&quot;&quot;&gt;&lt;span style=&quot;&quot;&gt;seeking: boolean&lt;/span&gt;&lt;/li&gt;&lt;li style=&quot;&quot;&gt;&lt;span style=&quot;&quot;&gt;time_commitment&lt;/span&gt;&lt;/li&gt;&lt;li style=&quot;&quot;&gt;&lt;span style=&quot;&quot;&gt;team_members: [array of userID’s]&lt;/span&gt;&lt;/li&gt;&lt;li style=&quot;&quot;&gt;&lt;span style=&quot;&quot;&gt;title&lt;/span&gt;&lt;/li&gt;&lt;li style=&quot;&quot;&gt;tools: [array of toolIDs]&lt;/li&gt;&lt;/ul&gt;&lt;/span&gt;" style="text;whiteSpace=wrap;html=1;" vertex="1" parent="1">
          <mxGeometry x="1110" y="-570" width="250" height="180" as="geometry" />
        </mxCell>
        <mxCell id="4loPCg8nlwmWD9Sx91Vf-16" value="&lt;span data-metadata=&quot;&lt;!--(figmeta)eyJmaWxlS2V5IjoiSHFaNmRFaE1LektLNTN5cWpIdkJweCIsInBhc3RlSUQiOjIwNDg3NzY0MCwiZGF0YVR5cGUiOiJzY2VuZSJ9Cg==(/figmeta)--&gt;&quot;&gt;&lt;/span&gt;&lt;span data-buffer=&quot;&lt;!--(figma)ZmlnLWtpd2kPAAAAlDAAAO19eZgjSXVnREqqo6uPuS+G+75nek5uUqlUKbskZU5mStU9HiNUpawq0SpJKKXqqTHGXLYxx3Ca+14Mw4C5jTHGLMYYYxZjjDFmMWYxxizrZVkvy7Ks18vu772IPFTd8O3+sX/YX8/3dcWLF5EvXrz34sWLF5maz8pGFMfd7SjcH0dCHDvhOs1OEJp+KPBf063YHatmNlftAFXZCmw/Vze4t92sAC4EzmrTrAMqBuGpug2gxEAnsInWAvdlyp1gzfE6vl13TXpysemGTvVUJ6i5rXql0/JWfbNCzy9psFNxm1RfTuq+XfXtoAbUocCym3YHaK/WuaVl+6eAXMkjfdurE/JwxalWUR6x6o7dDDtlH6NbZkC8HTVv78eYzknAgjpLc3MTYgHKt81Kx20yCcGVdd8JiRvZHPUib6cbR+hmoSm0aTbo1HDbDMr1/rDXH277swH1abrNW23fRYNwK9xOFJTc741GGyhRca1WA/wBlJbZbJsBIGPVd1segELVNxvUr1h23bptNjuuZ/tm6LhNIEtt2wpdH9ACyRnlYt1hskt2ve54AYHLPjpBgayhQ7692qqbfsdz66dWmcgKhmpW7AoEl/U7HNoniaUjQd2xCHE0ONUou6TtY04TgzUZe0EQOtYaierCoGZ6dmfdCWsd/exFlttsgiYzeLFFllWuu9YaapesO5VVtpJLQatBM72sYVccE8DlNWe1Vsc/ar4iAAE12Ss12IGw/bpJg161bgY1pxNiZNTu0TZ9xywz/1eHGrgnAx0L8kDtXsFOdxyt96c7YXT7VGnicHBLy/RttAp00kKT4KXhsp0bIaiSWGCoqBbSasVdJ76K55JfyTN9s16HxcMoGx1fT2dhHl23q4RdtJurnYoJTk0efInqsO0WVZapUnWY6iGG3XrFJpGulAfRsNeASUG8nhkEnbAGXlZpmWAh+w1enLJi+ms2MWo0WvXQUYujQHYCMyi3fGoqWm7dTWsllj4/sxDA0Bliy8ITFReaQ31JPZJUlzOtHArcathhGqit1Ey/ktZ4Udq+rczniH3SqrcCKBWVozWe77HADFuphV/AowC4sN5qOE03cEIa4iKv2x9q/S0Gbt0hRQnItOJgKWE0YhUYmaKoZHlgaQEkFHRFSwG4QopDJ632otMweWYlLO8TDoAFZxduM9jsDiIldPg93w4tlnfVoelJKIoHCZXCCvbWVrSpGS06WA4+vJ4Jy0GjqPiul1Vl1cXihAKbFayTFvFllE1rbR5VIMO12ActuDArR7lg0fLgF1DKurvOAFgIFQ8BDKHesUyPPEsxq8GSfIv9VomIVqLN0aQ77Y+GeCbxThgZaoU4AUtM11mzMyMzmrPdjWjSGvanMZ7xTZqG8JyTdj0AIMER/DLJxbBGw3g6ySkNygReUDuzKxsmOWMDY2iRFgLL5AkUq6BY6agnSrrCvReC6WR0OjIH/e0hHkiJCbgoh3cU6bZCDRqqs9Udw8iS+WEqrG2ZOgHD9H13nU2IJlFQVfuWllOHw8fqBbKozYTWZV1LMPEKKWoh78cWM0/VuRb1pVz9OOrLufp1qB/K1a9HfSVXvwH1w7n6jagfsRzfyo9+VM32xKhPkmlgB/OBFWW7bdMMZDJxozwaDaLu0B1HifKLraZafBAjHiO3C1gGrXLomwwbJ3lNsi2y8GujSf+O0XDaHeBx7dVyuoWdshSMEy1sGFWHOcyebkeTaR/LinCuh6bco2U3DN0GIKMxmsWRNZvEownkU7GrJtwZGoTluwFWkeMDlvYpm5YVTA81A4ELD+WZmArcmwXzRb3osUsrobCcOqCFBjlJemQRKkbMA2gp1R9Xl9tYyKNJoz+ZEAPpCmGto5QMwKnA2cFNh2TCRqUb7yhfYVjYWoASmYFL9idqPRS95ipQ4oRnUymDNhWGV6EIpmDfPh5NpgfXUAH7K7w0oiu9UESCwO7K48sEUbNpHsAY9e7+aDZdnfR7ikhRLaucxDMGDbXKCtkzXnc6jSZDNKGX4/EKgdtl9ytZn7PpyI/i/h0gnYqI2WHJpHzIFDLosXAyG25q8zMqTkB7NtEUCDUdlowMpvuDKIj03KE6P3C17wttkyxEWrAuZSuIFrF/Ni3aKwqh3fBc3+RIsZiQgTCnUSrJs7YQgDLZAOA4upunlRrTOdXgfG+FdJkDib0PgRDDqjfbNYY7S7pKpEYZRkYuBnCBH7BGMzA00c8t/LTnIHatnILZCim0LOZIlZjUiVk87W/to+mnUvFMy+7AFagwV3EQKKWxfwUSYW3g3Gp3QhdOheUxh4CNQadOw0N8iBq1oI+avDeK+6RLRMJAaT6FWYaUWyqShvSHWE7ooxSAEwFPQHkcqLVDBxHUZctnoZaxEaIsWHWXQ6QizhidXLxXankIoOwOB5Edv9UMHQ6bFxySajc31GFEkFiLTE6YVQzXob7YJ1CXDRcnng6LzVCwaijgqRqFOICLqgG7NnUrqRrHhgvo5UFMtCySKS1VfHMV5TLa1uxTyWOHUG27KrZeCSfdoRKZ4vEq7F8IJcMOHC52Mh0LCSwMiLBtA5RVHItQGojPEVdXfTeNJgs5VOJ4izmccrGlHCb1sQteK6gpnCa2mGESWksZSpFazhAppUN0JFI4TWklwySUDmcoRelIhkgpHVWMQg3olBA7NodM6F0wh1UkL5zDpVQv4pE0VhO9OI9LaF6SRyqSl+ZRKcXL4C0cq0NtqF2OMAvnXrMJJ8ImfwUCaReBV4a50u7GWCFK40dxVLZaZcdCgyDSSUUi6M1VDVrpKmbFE7Qq0qYi9ZvDlNSzc7gF5STT+mLg+crDLq3CTWAHSxHLumuKOKQgNnEsP2XfK/PIcJ0W++EDyBoOEUAfCTYno8Gg0p+oxQ+m9Sr5Gf4UEmZ/p56F55jSeo56cDXTCO32SQ9bi/JZFihQjMI1udqCU5dGjIM9BgO8KORghECDQcMaDbCTy+JELAu5jT/GBv4UuvhTVJs9Hr4dNbmPP4YPFHpniDP4U9jBnyJTCqajMR7YJFjcKuRYe0F0MBrd6aR/u5ALu9dcg7rcveZaFMbuNcdRFHavJWRx91pClnavJeSC151gf3KGvQjPGduzfk+czBFdETr6RuNedzCL8IyccSR+lTCqkFKzuxsJWdjq7vYH++gvY9r6ABggMo03J/3xFLUC9W13J/0uHpntRpP+ZrW/PZtAtNjs9CFSwOygTwASp0/O8gDmYeYfDcbdTRj13LMe4jEX+tTbtcQ5V5+7zkGgSsqlCeYpwKcjV8EwwhOYM+s3/7TVHccw5uwRrD8+iUkUnaRieDZORcR6AYhOWqOIF5khAktAYbKrABdy9L1E7nm2EBHjLwJjBCMAmJ+AhQzlpL0c2DQvNYkYmx18NepOWcB/Jz0cxNAkrOMed9FcGJYXEL5A3KBkBlGWdD5pIXCaFBkuun6liXLJrPrUvlxpsjM61Gw1iKUVxK+UUzmMHY+mdKSiyqMU2KI8hrMdlReYJsfSF1qqvAiHCSovDlT9Er/NmYFLaWGivCxY52zc5VawTuUVUA7hr7QsTuZcFagg5R41h/NtV+v44J6u3yT+7kVCQXlv7G+kyvtUQj4y3rdaN2ke92us+rRB3z+AraF8AIJzGv+BVcSSKB9UU+WDa2rch4Sq/tBbVPkwT5UPpwMHykfUq2WqP9L1uHyUH3L5aE89f4231iQ5XVuH+0B5HCXxeZ0f1ql+PUqq32CW/TbKG81ym+o3oSS+b24rOo9pgyGUjy3X10k/j0NJ/R6Pkvo9wVyr0TyeaJ3gg9STrCovhCdbHtdNq+VTvzK2eqpbcG5UVqqKvl3FeR9lFeVxlKsor0NZw7A0noOS6J+oqflgtFXip15zT5DdICDkWK7pIJBA6Z7wbroZpXfCu5no3HLCe8w1KP0T3jXXowzqJxr0XIi8HfVvYVcjvbQpzkK5jpL4ONlYaxD+VLPOgdWtzdZaiPLnsAEQX7ehDFD+fBsCR/kULwgJ30FJ+Kf6az7Vu75Xo3LDb5VJ75sBAkyUvVDxEYVNDvW3oCbS33YbySKUO23V3m+reT+tvcb2crrthz7KAcrjKHeDAJ5XiCFKqo9QXodyjPJ6lE9HeQPKCcobUcYob0I5RUlymqF8DMq9IIDPFuIMSqJ3O0qit4+S6N2Bkuj9Akqi9wyURO8XURK9Z6Iker+Ekug9SwbBcSL4bGm1mcPnEEAkn0sA0XweAUT0lwkgqr9CAJH9VQKI7vMJIMK/RgBRfgEAZvWFBBDlFxFAlF9MAFG+kwCi/BICiPJLCSDKLyOAKL+cAKL8CgKI8isBMM+/TgBRfhUBRPnVBBDl1xBAlF9LAFF+HQFE+fUEEOU3EECU30gAUX4TgOuI8psJIMpvIYAov5UAovw2AojyvyKAKL+dAKL8GwQQ5XcQQJTfSQBRvgvA9UT5XQQQ5bsJIMrvJoAov4cAovybBBDl9xJAlN9HAFF+PwFE+QMEEOUPAriBKH+IAKL8YQKI8m8RQJQ/QgBR/m0CiPJHCSDKv0MAUf4YAUT5dwkgyh8HcCNR/j0CiPInCCDK/5oAovxJAojy7xNAlD9FAFH+AwKI8qcJIMp/SABR/gyAm4jyHxFAlD9LAFH+YwKI8ucIIMr/hgCi/HkCiPKfEECUv0AAUf5TAojyFwHcTJT/jACi/CUCiPKfE0CUv0wAUf4LAojyVwggyn9JAFH+KgFE+d8SQJS/BoBd1F8RQJS/TgBR/msCiPI3CCDK/44AovxNAojy3xBAlL9FAFH+WwKI8rflwTQLQqsptmtxXMgkxDIopmx0x2MKcqSxNRntUlg2HeGvUR6MNoSUG/vTKBYFqfI7wijgymiH6kOKyBB/9brTLvddFIV2vxeNhGEkfeLrWpMBdar2Bzi5WhRNmr2n4Ugv5NKUmEKcF+90e6MzMUBjp7+9g5zBDuI+RJK9aNrtDwAVI8wlpiADEeUecgoREjeAF6bRLmf6VNPiXn8DZ89Ngpc4p66G1VeEwjj0/3fITURMky7mtiyWNyZEc4iRUTvEzAjjElbABUJukiAQVhsjijCnFIAX9vpxfwPRlhRFFPoq5KgoxYjEY/FUuQDaw3hrNNkVkHWftfFMscRAuIPoeUicP1Msd4fA4UjhUAsQFygE4j2Eo9DZorgQ9Xzu/yJxaDLCAQRdwMlKTA0ADm+x+CxiVmvtOVIcGdNkqtwENy6ORrujp/Ut0PGQnoUYF+WxPbaDZ0lxEVKp2/0hDik04nq/N93B+BfPYWsRiQroSyjkbEADFZiUMEqno32xI+QWsPX+MOkHnRGm0t+OwFABZwLUVKA6FUWqrKuOJaTXUeOYl6dmFLq4KA272xhLEtgkccA6k/XASVw1+NHNnS4F79EkRg+Z1nggp0KzNGKC3b1oglxiFHahNfF9KQsDTjByAuo26BK3GwNwH2MbkqXtwf54J8b+Ixd66Q1FjN1HLqrH2hgQKHC4tAXmU2k8X8rlre5gsIGMVBUNsdiRh3ZgThMQP10e3Y4B7pRyBTVAdxny8DTNQuJsOdFnr5I4ovFRL5Xn0VqOjjCKG8je9WLxFBzB1OrV57XCTtIP4WgJuTo9NWEsYq2oE8VtQp5hLUNN1HYKQIGAdLQi1cx4E+dB1Ba3+pN4aiXixbxLsP18fWGVZCaMhc3R7m4XjGlnk50ebxNKFeAKPmgL0mHhY6iziXd7e3q5LlRSBcBjTXAexpThslJKhjo2s/iNwh5XmtH0zGhyOmFhiNXYHWCwHo+YMHK2TZCjRboZ05AkzFiclDLY390YDTT5mCsYF/5XwQmRmAgYOAzT0g9oaVYxG7gPCDYhm/hww2BFyTFwCFdwcMOyXI2G5LAwTzWWHOUpywoOqnvkLXZnU+KXnYTqacz3REXbpsGLCp3BsJoRjRpA0JAEc+9HWxGO/JC0sbzVH0RrWMtYRzE34qmTWHWKXK2LvQInd6LigW89lxihlCwmu09p0IefnezThMNRMNugE/8GuhFC3CHJOMajIWxKDbQ4G24NKL1Pads8xaV+3Eqaop6QYllxbSXPN7oxTEXNv7CZYBVVOZ5tDPrxDojRuMRtOAqj7m49444GMQ4OUnCwC5PduZg0CTSY0qyNwkjXiZS7FZwBp1CF7kwaxFYxx8K8Ss5Nt338/4oyJ4+CnEKSRxRpddkrjCXetC4hTrAP8Ka1tRVHU1h7YdLt9We0wxWz3auEIt29FuLxJOr20GMx3hmdgayx75YjSLBHponuSyFta7yQneEWBQ88nidkb6asFg8bHvanETVUor3+ZnLNlKTb6DzGV2HSwgmZcwYG45CBo0wN6gX1oJ9sc1ga+mHLWu9wDCYPDAJPSBWEx7BbvbwxG0zd6UEf/a0+XAoMF08pmh/E1u1ChvDknvZNIREQS+mdhUDSNcnQSoLTFoNqSZ62gDQh5pH0LOpq2rmkEUl/3Pg1W3wWXdQMlLFPbE/IkTvZnQFGSWdNVw9IeqrbA8r/6otleRYBNYf0SZy1nUoneZPh7O4mDA0Ol6zMMDZSNFP5GESZoazEoJpdRFgsQ+4lSk2zjVQPZ7MEUtD6VQwZrHN+yaCS3sXiDrhZ51w038sUbYRtk2mAaA2LNIbziWdbW0hWYvH2KdjgAa4RSGxiKai4+HZRiPe2acVzPAAlooq4mOzzU7Bn1NzZlHYtCg/QDmcDmWIPdofIRUqY9t52dTTZxOqjW2p4kNMx0EuzODI34tFgNo3KNF9CLmsG26t6BGE41U7TtnXO16yvm6cCALLO8QDdU2IWU2L7esFRizDgO9PlVhjOdgMsVAgvFtiU9eJE1BorbECmi+1uewZ3NNG1xU0t+6UxeSlcgt4ollfhgaE0jpIwiExJpQGAB2eCDmewfCFefjFsScAxzG3Mag+ES8FmHBAYEvOUzlQGRLf6KJD79N01whj6FauCXa2q6/kiMkWuT1BJ38cuwHXATTO93N6ixlKuMdmf9IZi5J6ASjBJUjG4jwmjH4mhi2Stom5kW5XO0MNXwTghKtBjOyPdYAq4Vuys12ysn5pTr3TcKu6tqRnJVlz5qLfcpDnZTMdECAaRmcNtyAwnELjIXNXo4wZx4ifetKC8ch2RFp6dTfrgR/b68XjQ3WcbXcGxS1XZJMGtN5ghotajjbkCueExFdvigdNqWh63+dGgizBwRz1QHDNSPbCLMwsWCkAsElYswEI/rkSDCFEjTK5ojcAuxSCNLh2MoJ1Et/p6lFwbCkP7L+3OABUTj1VKadjD3pgODuA70iBtDWAGIcU40Q18764a7Guw+fRhAFhzA4+egjXkuqulgsfQRfUlUQWAqB2XGE6lgvshXHrBkbCpIZ+YoHBRj3pysasebfQVcxgmBpKofBPuLFskaW/oDa4ARoZh7HrZXVdLG/Zu6tlLHTA0RnuR3vVGg94aawjBG4y1mhqiketb6+M0ONl3cAjFI/FoBqfDwuqRsFTdOhAwrPd72xGMHKxjvzIQsyb97V4f1NTqNCq4D19tgjexXsM9Qtk1feKaX/JEBD2ERRgfShwBh3zqIHXDeAfHALEgDAYU8sYxll5y39MThVxVdbhpSqMeErzDKtTNwy5bdolKhXpMP/ZUxEWxppDIXQ0yYbDgviPFs4wcUktIfFfK1yrnAENaFNdqUNGN+nEw2ppqiw6oCcTfL3EiHA1b4x5OR3rADwAHVQySPm9EXXn5BPNWGRMUYh5ILyGBx9VKFCNAHbOVrCCzpV0T4HdLzOYcfukLErm6XFPm5D4vkbzrD3cQp9OxW/GCWZ1EalGjcyxxw9uSBjLcDP3OBK03obThrrSBg76s4V1JA+1DGfruBJ3jBzugYgPtv5Pb5b0uLC9Gelf+vjznU+W0K578FAsYClgFZgz5/o2M0yoCNBxAp/tt8mnupAehircb8vuJ3NhrZoJ7uxR3gBpj5+3oFwClD+SPB88ATToNqRZWDGLhX8x3b2NUpcpnKnS64HLafIdEiA1zpHgawaJ6kkX3En0GmreQlyZYevh1Ujw9qyqTxaFdHyjAap7jtyM/glXf+inN307OLJA5ra6vJHVm5i9p71bMK2/xVYjfQoYQKUrdL+q10wl/LZkSTK2LTfYuKX88j8LR424p/1GqBI81T/yfstFIk5VoC2ZhyBfQPpOhob8Ya1q+cB5t4tp7e7iLWiyeZ8gXIRRHXsycROXZBpRK+9IHODGkI5xLE1jJz4EL6m5PuuMd8kLw4svisgMo1fFEik1uf5fF5QdxquvaFKvLRPIw/8bgg8R9zoFWD4RpSxtmzC8JPkTc9yyk6twivAWXKi4T90tg1dSmai59cYW4/zxGdVsfYCPSeZct8ZCspppvIwk14WyRZHtoAqumn2dyMD7cr4iHJRXV9hTqyud/XFQjQBgN6xS8Ix9K8e0vzbViy7l9Ousiksl6PAsGm3ap9LEKImIZ/jvf69n5Xsqpk2jyXZ6T7wJvQAlFoJ+bRwcDGGXUuzWajND0vHxTU1/Rq9cDnoaLqLMbtbrFAO7r7FZkSlQcMMSdVa7Zouv7MVJ2OZyXRCYT3GZh24GjSIhv4Y6He6br7HOS5NaKo0mdDwFJyyLuLaajbcSMPXfohvrmPRZ78k9S/NbWXMMXZJq0E58wcIfAIxFPxE2MGzX5PINGK/d7/WycVzMuhNdBqpBQjxWvoax+rdvD5XGINojz7bljyIIGlY08FrmF07wmFxWk0I/L0t1LGlQNj8eTac5gOa2oxifEWMWI5FaoVKgn4eiW5sKR6dQV1fjkHnSOkwpEPBTL8kiuqjqYuzihgbcLqFSoCoFO7KpzHtoumkOoTtWNdKdyFfeYyMVnIVXnVazFfEx/Sb6uutRi3i91unpZXJWvqy5NhWL3IO4l7pmrqg63KAxMTtxH3CutqEZf1fm16fuJe2c11RxsYR/OtucHZVXVfqt6QKGox4PzCNXn5yKOGGIEL/LhGlYtnUwwlj5sHj+AUh23aNzVaLQbTRG4fVbK6/II1WdbjZwgqdf18yjVb4fyuAhWYYijcT3agg/KpA4Rv0zmO/gk6AM9Xp71KI+m09HuOai84mCfcxF6ZdYpa+nTVjOGeWO/gZX9+sE+4QhhAlqzLq+StNEhWsMqjOFRMWuIn9fWq+UsPjvD8BxjY0ShEeZX4+ADuDdrnOI2Rb9Fo2mKKfKtGslzSrFv01goF4EmDJ0WyTs0EkMpo8W036lxaqgUfZdG01Ap8l0ayUOl2Ls1NmD9KnQ8L5R3GzvYD9TWmspkKq4WV58Lr0zDi+ltXnIr4skCG4quqMancZ3mRR55WZzO11WXAaO8bg8bDXXZzddVFwwI1NzLzxVxOyNPzNRrzFWxz3XVWsbdMldrKduaIAb4M9UEp8xRQdbwJdWAgx2yMTXx56qqtnbUv6zq3gQJr8l+0L+DnqqJv5tD8/h0jozB0ndUU55x1VQW/1437fQHPf3o6mRELwt+V7VotliFwP6HOawyAqD/XqGZDNMPosEWhPM9hU92RzwiTogX4+AGpB/twd6iW0n1t0PpLzGgTp0qplMpR7AvpOWhsrYB5VjShhdlDWUQ2868DhzRi2VGio+R75XitTlciKeQgn5dDlXJstGvl1E3fdnVR5Sd9fKw60aTPdytIitB0chvIebltAAauX9dfCSHohfCV8RvZ7zq1POHpfiohOkmmdsQTaIpfjc3VNjfjUYzkvnH8z0bXVTwjz3E70lUkpbcDD4hexHscch17HIQ9KBLqcxP5gYIdkazQS+Ayqcm3yDTkv/TjFUnIx2LDxryW1kTqwIS4qyD+Kgh/odUKSYKI3EGkZ/X9bk81Fel/KtENnSYBA3xdSl+kOFsnBGB+a8Zpo6Z8lFSfFuKH2Z4fhobIXbF/5Zh8bzC/SjDWVh2UBazGotvSPm/sjYKdNK8z7ek+N8SR74Dn1weFv9FYVvQvF6Ey+K/Q8J8kjzHvdpbpPgJp2EO3My9SYp/wNi9CInUzdN1bAszSsS9yRDPNQYI4GBce/3oDPf9tCFeZfCwOkhDtCfF65LUlIVJwVXGqf9+PWI13Ml7UPMGlgMGEu+hZbY7ZnKfMsRvGmc4UxTs4+zcC+jQLX4sxctyaEt9r7QoXq6RFTVH3MdNJ1HyOdOPpHiFbre6m4i+TRCMIU14AfFK3eIMx7Npmlx9pSHeqBtoB5z2x1gVb9KY2gjmqXT8QyRYcLm2zvgAbvE0SRbT+w3dtxFNuz2a0KsMHC0Vzt4jSYBn+asa42FHhVfdb0TDmXJ0bzDkryEJC4PGIcIeznarpPx4ii1S/E+1iNBQAeWk4W2GeDZOqPCYkMchBtQm8MQufzU0hLbB2NGspprLJH7ljewhcU/r9NhZSNXZijhRk2hT3zdceDZWdbdjWL0D253wPTHM8Ip5jOpW3+1jPvU+CnS5EoWuqebGlEwbK/s0VjA63CNfV13cDWhp7ju7B4gHHMSpriehPCgqvx9jn37g2VjV/RRSjT0kxvjDNIwnHiEecQClOj5VCSHAUQq4GJ5LPnIepfrBjHG8ZiXEOD+Im8Wj5jGq2wYWBrwppbli8WkpH52rqx6b6g0AsgEEZeKarKrae5QTxTmDL95HSUW1jbdo8TdwpMCBl/ULNcZnIVVnLCXma1SFfqSgg1xSVR321DzL0IiymeR59D5DA8MXfEbKF0hIle2WLARtd8qYt6Xsi4VQvBkOhwLPYHc0muJalhT+Ft0PZ8kYqe3bkM1SI4YkuBh3VwSA4Pt0RygROtzkXCrkLdq4Ct3McOAeRD4kcQ+HbBmFAJNoWOmTQ6IL1A9rKqk3+KLERWFX3518SYo/SHxpkCbF6qydNuIDmkYJGhviWeQGUGWv/Akp/pBTU4MDl7EfkZCNbqDdZwrCSQdw+UdJWyZdh6SImVCHj0ocPc7qYWZXnh+X4o+5AwyHE/gnxV+wLLrYqCbBbExy1CllCm9N7EisAHLfX1fRkAWaGBJyI33UxF9nBGJN4acQ+IY8He2Hk/72NiT7cQMXFHsjhBM2eUBvZ4IEEuT9t5I4JYdMBlqOtkYThB3ISdAET8r/qFORdew4MYJJ+Z/kFOquI2QmySPoF/8ZCgGjOy7Sl1jDYBS72wg+EwkXwGDkl7FhxVMdP8Oknm9EuxtRjwl80hB3Gkif7DSiXl+93fQTQ7zUgFFAz6RlsKct6cc4Ixlxf3c8QPCcvL3gdYfRgKb7BmNnusvpsucXxHsNymr48EHiBQXxPqO7iUlyTqLe3YgGmPj7jT3qAgwP+isFRC0JxoIfmu1iPhRBjZGqFB8y2lBhtmPiXhQ+Y4wqRpa7xHt9RB/J4GYK5y9afIUGYU1lKrhqU9fWwjNbgY0St2Kr9FUt4TsJUt/P5DY5Y2EL2lWHbDp1wyhI0Rki/9Zgd0JXRbp3gNWK6znggtwjClvqx656TNUX1LgVvbLmdnBcLZHoEBrS3Qmsj+0RoNGY0eYMGUS4+xsLA/eY00kf/uYfwed8o42WfZCCRUL22T1kW0ucdIBuORo/AY0DrTaaiAhFS9V+NOiBCZDK+pAWcfOWSxQjfyyM0twDvWgLMzkpjDtGuxv9qKrfo2t2sUXjbnMz/3gzffA5hijmrz1L1rn7iWLbCZxynbQp6Cqbf/0CsKRXF3B9XcE1ccA/ONIBG1C506zZvhN26CYc14+nYBPcUJgbIct4QwDJFDB5kuPzjQOzrtCsl9Tl3FDNC/EMvFp30E6eKEC3WSJyRRSR1s4ed+jZ0pR85AsMsZCf+eJ4QpcqWJtMKxYvMsTS3PCMxxKhGEDBWCPkNlQFWWS+OlS1kwcmGtKY9JILf8XBIkQhk1dMIC5c0TYtu0PvfQAx/7R3gDcYL8xpuK2rK1L2td+gl6A09k5DGk4OPU8ENKbE00sNQQ4VovoZnUPqCW24DQ+X4PyxtQC/If2Cj/rZG6mWGnth3HyrT2z1l7OC379BKWnaHbsCs1C3z4YZhqZVsyuwEHShT4ODjvrxImouBGHLWkObGbby+KIabD6+FoV1n0UnQr/VtMzQBij5F1TqDt/cazeUxs/zLxEouI1NBpbDKB1JN5WpFda5RupAXJfG1Uo0i6alX8ISgU0/GaN+QyfTL/3EgRZHgZGdwK7blupWVE4TUAmskqS058oPhmwCIprRhDYkmDZu0xUA1qewSHglgHqK+eeISSybsUbp2eSf6aMHT+M1WD/9TaZZVNRjHLdkKeahkXhnHFqxckKVi8caWERCcgtIrJaDxzpxLDzl2YHlO/xRlLA8UpDU3woZVkBvmhROmG0z7VOshQ1aIqUTActzYRVard1CqEXvVFhj5NIqvYGxHDD6ULDu8CsYK2sufQkI6LDfCghzpGzyV29HHXLuiBLt3LEHvqtO1iSTxgqMImk0sLJjhCBwfiZiLxnQVr2KSAgrQwmSF4ZLSTzoYqyREIPyXrQojRDOoY4YgQgLozgACMMCtY3ZAH6HZX43vFwfQQGCHxJuPdrDPl4S/D5xc4aAYoJaUVEaqu2AKCFfT0+/B6v3HE8bvST87Q6wGyJuEIV5FM0ZK/X98P/ljBlRdP2K7fMiE61mVpFOEx4+BGQ03U5dfetWqCdscBzAkhf6maSPTKkkGKMyxwgQdf7iS+DSBX/lfLPmE86poX64AF2EfTKFsxcaqWcSwhrFPnl6CXHg4Q9DxKohFh8x5Px7PunzNvc1FvoZnRBoZKQg4RQ1l3qC4tKGXOapAH8aZgFq8RzxaQnnBp2CynJcCykvJpMUxgVZN9qLYTyYVIYL0VV4wsgweS7mEnjFrE82YI6LcybC6CVAShKhncnU6Z26BKPSeksU0yEcOscxY/ns48qhbEBsMMgl5bKIK4rfKjI91I5brcMw+klXdUjPaUdw2IeHa+v4iEVydB7XpgUonlcQx3ZzseoPcBmWChjLGWfzJHlnFIbaK+JYmXtjIXvXCu5fa7SC/NQmLL60Zp9KXiDCUllrwrl3+Gt2t17nF1jlybJ7soP9ErDhBdejKMBVhVat4/E3wcW1zE44hiQHGouShIoZq8f6GOy3BqbVDadhqC8W+P0kTN6w4STUqcM4rJviyWaLIWPanyLcBvvT5PMZ1VA8w5l12MBOks5biIhQiIHQvpj2d3bhyWvdmN43XNqCSmECedzyeDLawymCjrmHkLzAJorrfagO9RXMJyfPwxC7TsZhFlC/0wMW5zdSRaDDcUIZdcwUFpKmAo2lGbMtk/mQx01GLcyPUjwn66VzsL4w33Ndi+Tg3BMBLbXBDp1M4V82u8O9bkyHv+RW6ikIIXD4H2i2YdEG1ysRWTwfZNRDq0pvRf55JCKlDiQPE1K1M9H6aLPL87lNGDl0AMfF5kxfsTzlIEVrgGyhkAZqOBGM2bbxfMAryEtsWfJJA/11TiJdWkYI7cHssNGrRS0kv2IPSI8gd0bTeDya6qoRI1LUcLI+0oeV3kojVdO9fhYBaFQtTifzqrqtqB8rY2GPEfhOnR5loEqQdQy3irMd9j/I0tiAew02ccqjCA7D6dFj8UUEw2HqfNI9Biuz6vrrehn7Ng4zfGKVIV2tYjP18PQGzlHJ64GLI3hJHuxL2HqH0Zm0guu6AzxWiMcCoGQ2wGAu/bimejrDZnTmwBQwqV7K3JfpjJIE5Zxgp2wGUV10MvQ0fXexFFONR5EHh03YC+bogLs4oZNDF/k9R/E1AyKeE4DHeFGgr9IdhNgsNrPs+gpEvNtoOKGqGPOPrkX7nAyEtx0zFVCn25RtCIDukuGqdqOYHAQqhYBmgsMxveSFNRLPsScH3XiaaEhRF1+BBs5GByCDm+qvI/7Jky/CRmD5Kf3CxrzSErtxEFrdjrVkxNw/XSmFZGrqRUqYxdlDE0fnYDRIOdJENROx+CZCkzkmeQEjbZ25AiQ4EmpVkqUiCaNZwEOpvHDDY8hFtOGoo95zxllPOWQIHN4JjidUdaNNsUl2IkIehPd35DCRQMAqwyMtOGoQo4GMy2NQBC8QEzxM2hkcGHoLRaZB3T8W++Q8VZRQIo/InvMzMOldjB+JzxpiMU7cGXJyS6MNDLQH/sWiXO5F8NZRU9E8hAWBNcLuLRafM+SKEl3i0mLxeYM+Bpx3QLH4giGPYKgJuF0RR1kXSZ+aWg1YGMfm8N45nBAePykQiukuCfkKSQx+5cIxapkxxOJbhrxoMyf9bxvi4r05OX/HEJfAda9PcPSC7C6lD3SriJ4CaBHGIcVluXWZrO9YfNWQlweQBA4i3fHOLbOI80axjmWa2qv3ojGWCYyWEPrRdGRDbgwgaD7YaHOGIi3egvxIzRedlO7UlhvCJnG/ghtkA/bndSFRUricAu9Hu12kYIbbjRh0DIgOez/wXC1MAZHwF0URA5XpdJS6bE1RzhkUNIy28mTU7W1CK7Tw882b82x+H2uIhxD/gPU9TgiLHyDmTmRvXE3KhDeaG8iAthgoDDMZie9LWcTktLHH4rs4+rK0xDPkAuWpugNtkIvdTUq8iqJYiimfGaRZguWkHtKwjxeHkrqFxDHYY/QTxQq/AA8WSuIwg1oXiG+5inwnOUwQPKoG9rr7A0gFiGPxnAVQUvHvDXlBbiKpsr9niAu3QKmtkhqY70VM3YEWYTJY4fvubBr3e5E93BxgMSH8JrcC7V7MHT2IEE7gpLikH1s4MsBUB/BGg9awNwqQHT8tfmTIyxjlRznU5RuJCmPxQ0NegfWrXEUQPX0Wwaz1yXZRXMnjlLEzb+4E/G5/FQyrqV/FbXb2Bv/3pLjHeIScO7LnJtsAjtni6kp/a8vamVFsvJITA9yIVDvNAh2I+VOSJpqhZ3gpDpx4bkUFawWWVM2J2QFA8pj0wiZRj01+9QtCCncgDkJhiEWEHH2SJ5Rb68NlTDZ39jGEXBqfjVs+V2eKcehj2UPjc+NXaH6J/o2FIaaQzBAk1XqGhWKKWgyx+DG2EqqWaTjqVdwgyOMBmvMESuNzYRf85PKCJS+k/hm0SgcF/8iiSHtUyNYMY5fgmoqs5SRp5Mf/CSs1OZ1Rb0Yi84BsqG02QUtU664ZoqQvphz+MSfDrDv809qF5Ek/ikcDJPIzCoWfTSF50ByqbA38yU9J3q4IYwvy1TXEH0g+dGPxNoRCCREaFZHCHvfA4VL2gGA2noX0/OQgb88piAKlsujmRtT1N0PC9JHnrNuAJP1Kq0oZGk2zjaJg6s8TizX6lYxS7Tj+LtSuw9/F2vX4u1SjX8ZYrt2Iv4dqSeZ1pWabSLAAOlx1XfXt5BGzUvHVrxoepT7HaoS9wPOJ/IX8m963tNAXtYs4IX1xi/5e0rCbLZSX1umngi6rEO7ySoi/V1Qooruy6qy2mMZVgCzT0xO4R0Mlf66uOG0U96SLgXvZ9C3UvaEMl5Vxn6Bh8jdx9yWu7ofsDdG5/y3484BKlZ5+oFkuE5sP0unBB/s08kN8msBD9XXDw+iXH1E+nH6cHOUj2vxrTI8M1E+SP2pN/UiU+p2vawIW0LU0meOEuI4md73+RaQbyvyDSDeWK6SZmwKPzehmZuEx61w81nOsUE34cYHb8vm3Hx/vNGg+T8C5gWb4xLpZ5h/ofZLT9PiXJ59cboUhy8VUOV5AZeJfJ8As1wsT5VUAKxnalBs3fZtmWXVboaK1ikzBqtZkrYE+xBb9Hm+9or4GPlG3V1UufY1+W9Onq0HhJ+aWciKRZLfWkI8AbNDnhvrn1QvIl5IwiqR5qIRmVErg3DMLCc43Kw6RXkwZX0pYLLMqlpMeh5DSRSpEYVcC2/StmiJ2OJ8ip9+rV+Z7NPCcZsrxMZUqAXRBaJLyLkQBHbGsLyJhKWIXh75tE2eAL8Hxo+wq/KU0S5SXkdQV6nKaBMorqFR8XcncJtq4CkNQd4D3ILIor6ZSk7qn6VHeMfnc+l7ZYr733JK6T7Yy7qvlfD/k/FsNXInppXr/Cv0wGM5Q3OsBFdiJhh9Ycehn6V3+8dsHVbL/18CD7YZXg4sgU3hI1eYj1kOxDJV9PgxWgPs2+im2hyfTeQQNp1zhI5XRPgrXTDa45pEerad6DZVagtfCx5PMjye2dl1TJbCub6q53UCa45Q8KjfCoeQ/QL/J599FvxlFwsNjABMbTOyxQeINHocVCvtQKf/HY53i3J1Un0BaoLGeCBaIqSfpRf/kEN5e6Q3G4+Jih0Yol036lXZAFtTv1W2Sl/rt4Arl41BzmlWySFsv2ap2V6vwu/QJtmK+5turCnKUsQI6YSKVRzyt1V1iuw7fcUuLDaOhbqUAgX6Dx3e5d8UxVWcvhW4JsMfGCP//32PSOwvnY9J/jjFpMCaNN1MBiPMflp7/sFSh707QOX5w7ajYQPu/pA9L4b7Of1iquPxaMiWYWheHpLvOf1iqPgnNvgs5/2FpvhV78/kPSxnnIQzgvuc/LOWLxPMfli6e/7BUddyicZPvQ8Vnz39Yitasy6tw33X+w1KksvNCOf9hKRrUux7nPyxNrjsDukRMG16UNZRBbDvzOnBEL5YZKT5Gvvf8h6X0roz4ZG6Ac75Pd/7D0u75D0vF+Q9LsSGe/7B06EKMbL/nPyw9/2HpJudSIe/zH5aiAwyH8+3nPywlk/pn+WHp/wFyEQAAlZgLdFT1ncf/dyYZHjEg+EhAwKBiXSsZtIAsZG4QTdR1QdSt2upQUSJqIfiYsepieCTxNUE5Vq2iuDiDiKioVSnMJJE3AoswAeRhwyOF7gRQWz26HtC6n+//TmB6TvecmnNu/r/7e7/+v///juP4jN+cNLvp3VVOYcyMvT7mmG7drrjnl0MnVNwx+qqHrrpqyM8evOeuK+4fdfcD5hRzqnFOM2c4eXmOMT6T5+RfNuW26OSq6ogJOJ2nGWO6mJNNT2McY/Wa/ibPlz92/MSqkgtPcJykhT+7iP0UQRfVHDl8uOMRorvzGynyWUVnSdGV1ZGqe6vHTyq5unrSgyWXjq++f/x9JmB+vNonHTm49lKpdvCxMP8/pkyZdF/J6CkTqiYNL7ltfKRq4pR7Hyy587Yp1SXV4ydXmdNqES0hnvPQMd38i3XFjK6acGd0sjHnO7nyXTvku0q+q5XPq0dMTz6pq60s6uurf2L/VP8dxeFIHqqnd5ppzL58Eyg0jl7r5sfG+OqrV57kr/WZ6TkchYHTPY76lopOvtqxm4756/6e4/TAGcc5JvrqFt4+2o/dkhyOMwJnmsCZZNY64jciGWzXtFSMNo7jmzl03Jm5FCdQUxweLErt0H4/yaX4shQfnsxqzqX4A1PvT39vHL+v9q6px3IpeZLpaZw8X93Kr0fmUvIDD7dUdDdOvq9u7OTxuZRAoOZQfKM8qNtzoCWX0kna8CDgqx86pnsupbMoI43TyVf/3etDcyldAjWDkhfI6/qV9TflUrpmve5MdVbclUspCDwcSfc3ThffDGP+qvJkKYGayiJ87urjxZYti6dSWDnLOAW+uicv7pRL6RaoGRc52zgn+ep6vz0ml9I98PCg5FT5XLfw3Km5lJOlDZ8LfXVD96zJpfQI1BhTptzUtyW75FJ6KgPkppuvfuFzwVzKKYGHx0UeN053emzmFbmUU6UNr704aaFOWUo2zpNtnDl4+s3LGRno/UVjLqVIPqOLqvV+e0AupTjrWQ/ivP2eXEqvQE0kfWGO/YlZStZ+jw77HXi62ZNQnosKcil9snnuif2nrs2l9JX91V6eK1fmUvrJ5wtM5y5dHOfv97hvWiQ9xH/qttq2dd/6L7h92JbLT685dniev3vgyjyTn+lkujpjpkSmlFw3vvq+kusenHwrA+Eic23VxOik8fcacxL7XuMmz6jxfP8PUOh0m+bgxzRnuuPMcMxMhoVj6hxT75hHHPOoYx5zzOOOedWZ9uILvXwbHLPR8W9yzMeO2Qufz/zO5wScTh0jsYCdb6eONxs13+141JAvtDOyt177+vqZM825Dh7+Z9v+/R2PSH79Y8475ifmd47pY7o5vWaAOuOBd++9Y4C5wJQ69T6qc8p1xqGkIWPOKvcJaCgdLuCM8uOAJSViK90cgLQmYk/kApAkLsC85TdOQ+kcF0SjP5quskBLxU/daHpNmX9cZH8olbk3FEzOYz0a8hszErMuSkaGisNPuBYRTX/giqM4/ImbFfnGlQ4Gb7lVGo4U4uQcu/rDkRUWCCb3sMJhzHeuRCqLAuVWR0Npt3Ip1WqtCJBZcWT9kIgc2+N5KqVyXVa0KlVzcHNeCAfes0Aithre7SF/S8V2gHxcbHUTsYvk80FefuVqVYqyiFd5Wt32eMq1Ig2lLVClY69rlY6LfIatOXb1B5PTLdAe/5XHIX8lEk0PBImOaLovCl8F0Rc9WBEgs+KwfkhEjnk68FRK5bqsaDVB40TTQ9BLwQVQVONrKH2aYmaB4yQB5ijljaa/JnFbXaq/Gn83uDZZ0fRWipYE8UcZfp90HuBZCOKQ62+Pz4XjCzga7EoCfm2B4vC/E+ZB6RiI859SwYFo3+ghKouasDuKaN53/anM9fj3Ji8zeRa4vlRmMfIvKb3bkfstLxk3mZku7ccwdTMKj0Ho7yESsT3U9wg6Zof8xeE9sOfZIiZipWVoXwRicGNl0eN2hWOwBRpKv6QjD5ah4zdk44lQOHJJiEPP9YUjvbBwprSfDesR2C7B3ZXSfgv2n8fcY3YlmIQFwpH3CGqNEKtg/RLEKjzspXBXUaef8SwDUaGd8A7ab8Ddl1B+i+sbF/kFslGZK4ClFtaNoWTmOcnOoKSLQM7Aw488RCqzD5NLQ+MiX0nZXyipnz1yHmY7l5OyX8CuXdRgV0SWWWBcZCuK/eL4jAp9xeOV2zjmRcc47fEENuiJhtJfogqgPf4nmAa4zJSMB7RUBFEMqTh8zQmAjjIwDz0BBJOBcqo42AO0B9vjseGQNncAl6IQUjBZdgJAWuIJAsoCMmGO0JqVRbNUzUZ/Ina9BVR8mkiTZxdsd4Uqi+ZSpq9D1HtUqD0+ghYdBTKm9hpFEpdiZy5dsVOI3RTwW/ScRVcxV9rjN9gUhSOz7ErOXrNAS8UfsNKlnMqsQz6PCLeQm79Jx06K8CXIVvw+5Poqi/afAOQ3IRV4ORJARIZktcGTBaLpt0Lsv1YLWH3qQaUomBwWItC1IJJlidgSONaMALEAj0vpYy8VSsoLpDMh3ncsEEwux93tIX9lURqEnw24C4OD1CZt9NrNvLRBICkCgsmFvOxCW7N6Lw3HNuRXgNinCN+B4wiIF+yKlekWUM9yddXeL6eRt5LpUtYmcfQDeA35fijGigANLvoGJIOLU4Bo8tFzC8gdIb92tVyXFa3mENVOZrQz2KpcBizQHv8pJpeXMef2UcNqOoQZZ77VfB9J2GVQdbw8bi2AeB/EPHbIds3bfTTINyTzfExS7eLwBFtcmdQKxzsWSGXW4iXVrizSNM+nez8HcVRjz3DOtCOfj9hmFx1dyzW7vPVJl4oKuF+zazceZgFj5mt778Wb+S6tuhc7ywj+ExAb5OvHvOzGtWY0HVC+FkP5HK4X7ApipgVSmVvhbHNx7RJc24Fbpaxr5EkfMvoe8n1o5pflSR8U1niUhtJK5AdB6SdzlxHBF/TYRESYVe3xeso7l1k1167U/E0LaFbhi+bdWuwuB7EZCwfEsROFeci3oryfyzbtXN4eL5Cr+ZzBjVTyGBx36/Q8TAOmy9QiwWRmBLsqhZLBjR3lNet8xgkmT8Zka4pD7iCyralUJsmIu7UMd2eTyW4kcTb2a1Xr2cznD6EmKW27DuyDlLYr2k/Gma7yodQCitRyaBpKRKvVIaCl4mL0XI1YRveBCihXlVUW2ZNwBN1wjnVISrV6LkbT63QOH6TJ1lGNJJ61KKPySBNgNo6wRwQoAeKIpn261MjFzrSSXGQ+ey52ZiBchlI45JFEtFodHtCGm1fDsUtDXy6m4RqCz/+tlj4HyjpePMfMDju/HwXRWTv5NgukMrpXUPdErDceDgaZR95vFEIH5lRKvIfJ+IyHSMQWWY5ErFGI3rx8bHVoiFilNAB+PGpXAptrgWj6bY/DmJVWRB5aHV6bLkJkB5xYESCz4rB+SESOSYf1VErluqxoNfOZBh03tawPgxt11nFElrEZWknuQ7j+MmX4QR2izT8SpSMJ7AlZGEm75EwDBhci/2AatMez00A7VEBxWLe4Tpr9h3HGYXsfxTybkk8TToZdcAWYBk06H3dSHAZge1ytvgVzq0ndHuXxfSifoWiOXYmw1gLjIlWs+yVyKY5sR2wQ64fi6Ivm10lKX6KMeQidycXhQSAHajKPgsNBZAKEFt05akG8Qh50c35FedCdQYgl+LJUe3EV2jfTkxsR4V6ciG3DqZ5QdY4N0p0nQJPao0Iz7msSqn3MtTgRO4Ld05DditvXlKHM28cdhTFL89V+uvdV6IQeagENBXaYtv0KUr6bOfAU60yNnREo28Sm1tpXORjBrhmNZzNB/lppWwCiHu0H2P5Pauz1YIY9RwwXE9iL2iRheUcMM+GKS8eLUHUTf4PEvqYsJQFeh2slIm9Jx3ocexfkehKb0km9nirRqQKCyW0WG01TlOLwYiifI/uMXeG4xwLED2ebToSLAD7B5XPh+kg9MB3ft0p2Pr5/BuUQvfidEMV4FeAuUIl2jhdjInik28Vv7QpivgWCySWsBbqQrCeyLgyJ3URHlyZihwD+hu+6sx1WuD9gdycu/4DIMs1hIbhbJGIbTgC6mnIifGQBoliFdJi2WIpggfpkMZQ7ynQA0GvDOY4b8FHF86qpus4AejZExM9boKF0oSzqbFiKtlaCXE58BZoR63HyPF7Ww3GlrovK62NKwVpk6/GrGWqtevoD6jmdlzdIVI1G2jwS/BDsz8H1gBANZDvKyyO4dp90TAKYAvu1PLcLMQz2m3nOQ/TfNCd7YfdfeXrhRx8Pwd2VVr6YdDYrAT/Hj2cplBeUeZQTKJVZgOICXVgFHHa5lR0sywGOk7jGcelqpbwDywnuJsLPAsaco/hvwm4eDk3gyShl1TizHv6HMdckxCO4+nsQT9mVMj5rAe1cNqu28n8RXZIsx9HVGKKv3sRybATaX4MyfDjDTqsOzGdxQAfVYzKXokluxxHTyHeM1jIy1AdgeVk4ko/9KsXfyo77APutHPqF2gJeNOY1u4VfQGG4mdzfbQGNUs7GZuR6yGYz+UCubzNuvk7dTTOeId/URBLOxtQtTbAOBJjdFI6E3Pb4e03EPAbEzqZE7C4K+tcmYta0ym/W+NCKyDILtFRsIgkfN7G599MdTzdpJZBGrlD7UbZR2dhjAWR2QVpINJvdYPIBfQGvRUl/vFpCRlfqqrjA5arJwT7LrjT7jRZIZs4iur5q4D/i/KwQGaVF/BoZ+lIYifwo9DR4iJaKZYjNhZNDTpe6VOaf+XQIR7KfDuHIOuTzOE+2uPbTQaelPh30pWq/GPQ1cBxQl9F3BRxIWUD7kGIXMB4WklY/B5GvmbR+g5ZBzbrApzKVzfRHEwbDILwqqlUFrdEEf8cC2qnB5F+UvTQhdKMeu9z2+MUa+m1wjMeNNryf5SHa46/z7ILAsaTvAx0aP/L7QF+d+j6g/cXRjxQsRL6fZ0WAMRNc7/tguMyORGEP9NyC6a+87wO5LitazZ+46ujnC/rC+x3D5knj+DiQypBLY4ZZAMcvR53u75Mxznmui0EwWViezMTtitGFFtDPDomYRSwhikLGr46QQn3BJpH9s0tTLQHzP1AXg8jI4QXE2I7xuXa12gXoG6ClgrMkmLwRYBfP5Ti0QbNvCOYaSckQuBZpygwhC9lwWI05QJDRdCGKrmkm0YdCAujqUDgyupmczKHvr2xuqXgUREUzsz9FbXc2Eev/AmSakpmeqP6zNt/5+HqgiWmAi6uEGEPjxkHcTAkubGJr3Yk3mRRfqRlv1oUjPeC1wFMEeVQHyNMeoD1gScFkF69Bi8PzSMizTcT9PJaOoLiB9dRmfJnmpjIXNdOLCI9SHMNtQB2BmRVE2RGyjd1qVDaOA1A8Eis/zfKgq7/uZOsYkf3ZCi+zHwfok20ykZ/PzWUyW/hCD1FZNMxyRNNlnkh7/BKKatB/ifqgjwW8exUcweRlrkS0Wh0CpFQc1opEZFY67PoI54f8jKZf/Qd1tICNhVRjKwvoS5LEDbMAu+QqSWE1grGAPH+K0hTi+WK7gthoAW27cIQONuYbyuvQwYYqHFZL6XqxDYUBEO/KlYCcNMzlHdLuAZVFb7jkYQdadEKvQ8luOfAHBA/D9pJdsfe4BeSRfgOC4wYq9inslSA2yp4ibYTLC928Yu/pPyJq+hcPDL9K3UM/EnUi5v1epfmglU5dbYHKoh0eBxcqymK4Num3K5RpBArAYQObIWINSViTmdMYwNrAA+xKxoZZgK8u0ugop2NRdJiUaLWXwbFQ8V4/W7F6QEPpEpfGHYxQCxUfCO9el5E+AJYjJKi3XUFItWah8v+pZvz3OL+RrH1Pon6vHwEEoJU2PAHoO5uCrCOuLQgvw8Qe2VsEyxFenrErfVhngZaKKQRMQcZFfg7wKSYqeDYpnUOQ/xCkvmLfVAOoQphRMVj5+z8=(/figma)--&gt;&quot;&gt;&lt;/span&gt;&lt;span style=&quot;&quot;&gt;&lt;b&gt;Tools Model:&lt;/b&gt;&lt;br&gt;&lt;ul style=&quot;&quot;&gt;&lt;li style=&quot;&quot;&gt;category&lt;/li&gt;&lt;li style=&quot;&quot;&gt;&lt;span style=&quot;&quot;&gt;icon&lt;/span&gt;&lt;/li&gt;&lt;li style=&quot;&quot;&gt;name&lt;/li&gt;&lt;/ul&gt;&lt;/span&gt;" style="text;whiteSpace=wrap;html=1;" vertex="1" parent="1">
          <mxGeometry x="1370" y="-570" width="100" height="80" as="geometry" />
        </mxCell>
        <mxCell id="4loPCg8nlwmWD9Sx91Vf-18" value="Projects" style="outlineConnect=0;dashed=0;verticalLabelPosition=bottom;verticalAlign=top;align=center;html=1;shape=mxgraph.aws3.dynamo_db;fillColor=#2E73B8;gradientColor=none;" vertex="1" parent="1">
          <mxGeometry x="590" y="250" width="72" height="81" as="geometry" />
        </mxCell>
        <mxCell id="4loPCg8nlwmWD9Sx91Vf-19" value="Tools&lt;br&gt;" style="outlineConnect=0;dashed=0;verticalLabelPosition=bottom;verticalAlign=top;align=center;html=1;shape=mxgraph.aws3.dynamo_db;fillColor=#2E73B8;gradientColor=none;" vertex="1" parent="1">
          <mxGeometry x="810" y="250" width="72" height="81" as="geometry" />
        </mxCell>
        <mxCell id="4loPCg8nlwmWD9Sx91Vf-20" value="" style="rounded=1;whiteSpace=wrap;html=1;fillColor=none;" vertex="1" parent="1">
          <mxGeometry x="480" y="-60" width="700" height="700" as="geometry" />
        </mxCell>
      </root>
    </mxGraphModel>
  </diagram>
</mxfile>
